#N canvas 259 167 363 273 10;
#X obj 29 155 outlet~;
#X obj 116 155 outlet~;
#N canvas 633 122 676 510 readtables 1;
#X obj 226 443 +~;
#X obj 450 444 +~;
#X obj 226 480 outlet~;
#X obj 450 473 outlet~;
#X obj 46 7 granreader 1 \$2 \$3;
#X obj 63 31 granreader 5 \$2 \$3;
#X obj 180 7 granreader 2 \$2 \$3;
#X obj 311 7 granreader 3 \$2 \$3;
#X obj 439 8 granreader 4 \$2 \$3;
#X obj 457 31 granreader 8 \$2 \$3;
#X obj 326 31 granreader 7 \$2 \$3;
#X obj 194 31 granreader 6 \$2 \$3;
#X obj 67 83 granreader 9 \$2 \$3;
#X obj 194 84 granreader 10 \$2 \$3;
#X obj 324 87 granreader 11 \$2 \$3;
#X obj 457 89 granreader 12 \$2 \$3;
#X obj 474 113 granreader 16 \$2 \$3;
#X obj 342 110 granreader 15 \$2 \$3;
#X obj 209 109 granreader 14 \$2 \$3;
#X obj 79 108 granreader 13 \$2 \$3;
#X obj 85 165 granreader 17 \$2 \$3;
#X obj 217 166 granreader 18 \$2 \$3;
#X obj 346 167 granreader 19 \$2 \$3;
#X obj 479 168 granreader 20 \$2 \$3;
#X obj 495 193 granreader 24 \$2 \$3;
#X obj 364 192 granreader 23 \$2 \$3;
#X obj 234 192 granreader 22 \$2 \$3;
#X obj 101 190 granreader 21 \$2 \$3;
#X obj 111 243 granreader 25 \$2 \$3;
#X obj 245 245 granreader 26 \$2 \$3;
#X obj 375 245 granreader 27 \$2 \$3;
#X obj 517 243 granreader 28 \$2 \$3;
#X obj 534 268 granreader 32 \$2 \$3;
#X obj 392 268 granreader 31 \$2 \$3;
#X obj 259 267 granreader 30 \$2 \$3;
#X obj 128 266 granreader 29 \$2 \$3;
#X connect 0 0 2 0;
#X connect 1 0 3 0;
#X connect 4 0 0 0;
#X connect 4 1 1 1;
#X connect 5 0 0 0;
#X connect 5 1 1 1;
#X connect 6 0 0 0;
#X connect 6 1 1 1;
#X connect 7 0 0 0;
#X connect 7 1 1 1;
#X connect 8 0 0 0;
#X connect 8 1 1 1;
#X connect 9 0 0 0;
#X connect 9 1 1 1;
#X connect 10 0 0 0;
#X connect 10 1 1 1;
#X connect 11 0 0 0;
#X connect 11 1 1 1;
#X connect 12 0 0 0;
#X connect 12 1 1 1;
#X connect 13 0 0 0;
#X connect 13 1 1 1;
#X connect 14 0 0 0;
#X connect 14 1 1 1;
#X connect 15 0 0 0;
#X connect 15 1 1 1;
#X connect 16 0 0 0;
#X connect 16 1 1 1;
#X connect 17 0 0 0;
#X connect 17 1 1 1;
#X connect 18 0 0 0;
#X connect 18 1 1 1;
#X connect 19 0 0 0;
#X connect 19 1 1 1;
#X connect 20 0 0 0;
#X connect 20 1 1 1;
#X connect 21 0 0 0;
#X connect 21 1 1 1;
#X connect 22 0 0 0;
#X connect 22 1 1 1;
#X connect 23 0 0 0;
#X connect 23 1 1 1;
#X connect 24 0 0 0;
#X connect 24 1 1 1;
#X connect 25 0 0 0;
#X connect 25 1 1 1;
#X connect 26 0 0 0;
#X connect 26 1 1 1;
#X connect 27 0 0 0;
#X connect 28 0 0 0;
#X connect 28 1 1 1;
#X connect 29 0 0 0;
#X connect 29 1 1 1;
#X connect 30 0 0 0;
#X connect 30 1 1 1;
#X connect 31 0 0 0;
#X connect 31 1 1 1;
#X connect 32 0 0 0;
#X connect 32 1 1 1;
#X connect 33 0 0 0;
#X connect 33 1 1 1;
#X connect 34 0 0 0;
#X connect 34 1 1 1;
#X connect 35 0 0 0;
#X connect 35 1 1 1;
#X restore 30 125 pd readtables;
#X connect 2 0 0 0;
#X connect 2 1 1 0;
