#N canvas 11 1107 917 696 10;
#X obj 11 390 outlet~;
#X obj 70 391 outlet~;
#X obj 245 315 pack 0 0 0 0;
#X obj 59 11 t b b b b;
#X obj 128 254 * 2;
#X obj 128 276 +;
#X obj 291 126 random_range 1 10;
#X obj 268 175 random_range 10 100;
#X obj 314 76 random_range 1 60;
#X obj 11 258 tabplay~;
#X obj 245 263 / 1000;
#X obj 245 285 *;
#N canvas 193 1165 236 492 panner 0;
#X obj 8 68 inlet~;
#X obj 7 417 outlet~;
#X obj 71 418 outlet~;
#X obj 30 330 - 1;
#X obj 30 359 * -1;
#X obj 71 389 *~ 1;
#X obj 7 389 *~ 1;
#X obj 30 238 / 100;
#X obj 30 216 random_range 0 100;
#X obj 151 184 + 50;
#X obj 47 188 - 50;
#X obj 90 189 * -1;
#X obj 47 163 * 0.5;
#X obj 30 297 line;
#X obj 30 273 pack 0 0;
#X obj 57 68 inlet;
#X obj 47 124 r \$3-zample_pan_sprd;
#X connect 0 0 6 0;
#X connect 0 0 5 0;
#X connect 3 0 4 0;
#X connect 4 0 6 1;
#X connect 5 0 2 0;
#X connect 6 0 1 0;
#X connect 7 0 14 0;
#X connect 8 0 7 0;
#X connect 9 0 8 2;
#X connect 10 0 11 0;
#X connect 11 0 8 1;
#X connect 12 0 10 0;
#X connect 12 0 9 0;
#X connect 13 0 5 1;
#X connect 13 0 3 0;
#X connect 14 0 13 0;
#X connect 15 0 8 0;
#X connect 16 0 12 0;
#X restore 12 361 pd panner;
#N canvas 0 0 450 300 grain-level_event 0;
#X obj 29 23 inlet~;
#X obj 30 264 outlet~;
#X text 249 187 here is a space to experiment with microscopic \, grain-level
events \, such as random filtering \, constant-Q filtering \, windowed
envelopes \, and other audio trickery. see Curtis Roads: "Microsound"
for inspiration!;
#X text 137 23 bang at beginning of grain event;
#X obj 90 23 inlet;
#X obj 150 53 inlet;
#X text 196 53 total grain length;
#X connect 0 0 1 0;
#X restore 11 338 pd grain-level_event;
#N canvas 971 1103 450 300 zample_gain 0;
#X obj 98 168 outlet;
#X obj 183 168 outlet;
#X obj 184 94 +;
#X obj 188 68 / 100;
#X obj 222 95 *;
#X obj 98 94 +;
#X obj 131 93 * -1;
#X obj 184 118 pack 0 20;
#X obj 98 119 pack 0 20;
#X obj 98 143 line;
#X obj 183 140 line;
#X obj 98 18 r \$3-zample_gain_min;
#X obj 112 46 r \$3-zample_gain_sprd;
#X connect 2 0 7 0;
#X connect 3 0 4 1;
#X connect 4 0 2 0;
#X connect 4 0 6 0;
#X connect 5 0 8 0;
#X connect 6 0 5 1;
#X connect 7 0 10 0;
#X connect 8 0 9 0;
#X connect 9 0 0 0;
#X connect 10 0 1 0;
#X connect 11 0 5 0;
#X connect 11 0 2 1;
#X connect 11 0 4 0;
#X connect 12 0 3 0;
#X restore 371 52 pd zample_gain;
#N canvas 492 1461 450 300 zample_envelope 0;
#X obj 146 44 +;
#X obj 150 18 / 100;
#X obj 184 45 *;
#X obj 60 44 +;
#X obj 93 43 * -1;
#X obj 146 68 pack 0 20;
#X obj 60 69 pack 0 20;
#X obj 60 128 outlet;
#X obj 146 129 outlet;
#X obj 60 90 line;
#X obj 146 90 line;
#X obj 60 -30 r \$3-zample_envelope_min;
#X obj 74 -6 r \$3-zample_envelope_sprd;
#X connect 0 0 5 0;
#X connect 1 0 2 1;
#X connect 2 0 0 0;
#X connect 2 0 4 0;
#X connect 3 0 6 0;
#X connect 4 0 3 1;
#X connect 5 0 10 0;
#X connect 6 0 9 0;
#X connect 9 0 7 0;
#X connect 10 0 8 0;
#X connect 11 0 3 0;
#X connect 11 0 0 1;
#X connect 11 0 2 0;
#X connect 12 0 1 0;
#X restore 332 152 pd zample_envelope;
#N canvas 513 682 450 300 sustain 0;
#X obj 34 137 outlet;
#X obj 120 137 outlet;
#X obj 120 60 +;
#X obj 124 34 / 100;
#X obj 158 61 *;
#X obj 34 60 +;
#X obj 67 59 * -1;
#X obj 120 85 pack 0 20;
#X obj 34 85 pack 0 20;
#X obj 34 110 line;
#X obj 120 109 line;
#X obj 34 -10 r \$3-zample_sustain_min;
#X obj 51 13 r \$3-zample_sustain_sprd;
#X connect 2 0 7 0;
#X connect 3 0 4 1;
#X connect 4 0 2 0;
#X connect 4 0 6 0;
#X connect 5 0 8 0;
#X connect 6 0 5 1;
#X connect 7 0 10 0;
#X connect 8 0 9 0;
#X connect 9 0 0 0;
#X connect 10 0 1 0;
#X connect 11 0 5 0;
#X connect 11 0 2 1;
#X connect 11 0 4 0;
#X connect 12 0 3 0;
#X restore 344 102 pd sustain;
#N canvas 496 1097 450 300 zample_start 0;
#X obj 57 157 outlet;
#X obj 143 158 outlet;
#X obj 143 81 +;
#X obj 147 55 / 100;
#X obj 181 82 *;
#X obj 57 81 +;
#X obj 90 80 * -1;
#X obj 57 130 line 20;
#X obj 143 130 line 20;
#X obj 143 105 pack 0 20;
#X obj 57 106 pack 0 20;
#X obj 57 10 r \$3-zample_start_min;
#X obj 76 30 r \$3-zample_start_sprd;
#X floatatom 271 45 5 0 0 0 - - -;
#X connect 2 0 9 0;
#X connect 3 0 4 1;
#X connect 4 0 2 0;
#X connect 4 0 6 0;
#X connect 5 0 10 0;
#X connect 6 0 5 1;
#X connect 7 0 0 0;
#X connect 8 0 1 0;
#X connect 9 0 8 0;
#X connect 10 0 7 0;
#X connect 11 0 5 0;
#X connect 11 0 2 1;
#X connect 11 0 4 0;
#X connect 11 0 13 0;
#X connect 12 0 3 0;
#X restore 338 212 pd zample_start;
#N canvas 506 1265 450 300 triggerz 0;
#X obj 67 203 outlet;
#X obj 121 204 outlet;
#X obj 67 109 metro 800;
#X obj 121 132 random 100;
#X obj 67 58 >= \$1;
#X obj 121 153 >=;
#X obj 67 79 change -1;
#X obj 280 41 inlet;
#X obj 137 40 r \$3-zample_asynch;
#X obj 67 19 r \$3-zample_voices;
#X connect 2 0 3 0;
#X connect 2 0 0 0;
#X connect 3 0 5 0;
#X connect 4 0 6 0;
#X connect 5 0 1 0;
#X connect 6 0 2 0;
#X connect 7 0 2 1;
#X connect 8 0 5 1;
#X connect 9 0 4 0;
#X restore 19 -15 pd triggerz;
#N canvas 262 1341 450 300 zample_zelector 0;
#X obj 46 215 outlet;
#X obj 100 216 outlet;
#X obj 100 188 f;
#X obj 55 51 + 1;
#N canvas 552 614 576 327 selector 0;
#X obj 38 90 f;
#X obj 38 23 select 1;
#X msg 38 43 bang;
#X obj 38 190 f;
#X msg 38 143 bang;
#X obj 178 90 f;
#X msg 178 43 bang;
#X obj 178 190 f;
#X msg 178 143 bang;
#X obj 338 90 f;
#X msg 338 43 bang;
#X obj 338 190 f;
#X msg 338 143 bang;
#X obj 478 90 f;
#X msg 478 43 bang;
#X obj 478 190 f;
#X msg 478 143 bang;
#X obj 60 240 outlet;
#X obj 113 -29 inlet;
#X obj 178 23 select 2;
#X obj 338 23 select 3;
#X obj 478 23 select 4;
#X obj 38 123 select 5;
#X obj 178 123 select 6;
#X obj 338 123 select 7;
#X obj 478 123 select 8;
#X obj 194 65 r \$3-2-zample_size;
#X obj 54 65 r \$3-1-zample_size;
#X obj 354 65 r \$3-3-zample_size;
#X obj 494 65 r \$3-4-zample_size;
#X obj 54 165 r \$3-5-zample_size;
#X obj 194 165 r \$3-6-zample_size;
#X obj 354 165 r \$3-7-zample_size;
#X obj 494 165 r \$3-8-zample_size;
#X connect 0 0 17 0;
#X connect 1 0 2 0;
#X connect 2 0 0 0;
#X connect 3 0 17 0;
#X connect 4 0 3 0;
#X connect 5 0 17 0;
#X connect 6 0 5 0;
#X connect 7 0 17 0;
#X connect 8 0 7 0;
#X connect 9 0 17 0;
#X connect 10 0 9 0;
#X connect 11 0 17 0;
#X connect 12 0 11 0;
#X connect 13 0 17 0;
#X connect 14 0 13 0;
#X connect 15 0 17 0;
#X connect 16 0 15 0;
#X connect 18 0 1 0;
#X connect 18 0 19 0;
#X connect 18 0 20 0;
#X connect 18 0 21 0;
#X connect 18 0 22 0;
#X connect 18 0 23 0;
#X connect 18 0 24 0;
#X connect 18 0 25 0;
#X connect 19 0 6 0;
#X connect 20 0 10 0;
#X connect 21 0 14 0;
#X connect 22 0 4 0;
#X connect 23 0 8 0;
#X connect 24 0 12 0;
#X connect 25 0 16 0;
#X connect 26 0 5 1;
#X connect 27 0 0 1;
#X connect 28 0 9 1;
#X connect 29 0 13 1;
#X connect 30 0 3 1;
#X connect 31 0 7 1;
#X connect 32 0 11 1;
#X connect 33 0 15 1;
#X restore 100 140 pd selector;
#X obj 100 161 t b f;
#X obj 55 27 r \$3-zample_number;
#X msg 46 113 set \$2-\$1-zample;
#X obj 46 81 pack f \$3;
#X obj 75 3 r \$3-zample_number_shuff;
#X connect 2 0 1 0;
#X connect 3 0 4 0;
#X connect 3 0 8 0;
#X connect 4 0 5 0;
#X connect 5 0 2 0;
#X connect 5 1 2 1;
#X connect 6 0 3 0;
#X connect 7 0 0 0;
#X connect 8 0 7 0;
#X connect 9 0 3 0;
#X restore 11 -40 pd zample_zelector;
#N canvas 960 1141 576 557 envelope_generator 0;
#X obj 166 2 inlet~;
#X obj 167 330 outlet~;
#X obj 215 2 inlet;
#X obj 255 330 outlet;
#X obj 245 60 unpack 0 0 0 0;
#X obj 215 277 line~;
#X text 277 266 ramp generator;
#X obj 215 243 pack 0 0;
#X obj 215 25 t b l;
#X obj 215 124 f;
#X text 285 248 gain + attack;
#X obj 312 122 del 1;
#X text 365 120 delay attack;
#X obj 312 150 del 1;
#X text 365 149 delay sustain;
#X obj 312 205 pack 0 0;
#X text 365 178 gain0 + release;
#X obj 312 178 f 0;
#X obj 167 300 *~;
#X connect 0 0 18 0;
#X connect 2 0 8 0;
#X connect 4 0 3 0;
#X connect 4 1 7 1;
#X connect 4 1 11 1;
#X connect 4 1 15 1;
#X connect 4 2 13 1;
#X connect 4 3 9 1;
#X connect 5 0 18 1;
#X connect 7 0 5 0;
#X connect 8 0 9 0;
#X connect 8 0 11 0;
#X connect 8 1 4 0;
#X connect 9 0 7 0;
#X connect 11 0 13 0;
#X connect 13 0 17 0;
#X connect 15 0 5 0;
#X connect 17 0 15 0;
#X connect 18 0 1 0;
#X restore 11 313 pd envelope_generator;
#N canvas 968 1468 450 300 asynchfilter 0;
#X obj 66 17 inlet~;
#X obj 66 136 outlet~;
#X obj 117 17 inlet;
#X obj 84 83 line~;
#X obj 67 111 *~;
#X obj 85 61 pack 0 5;
#X connect 0 0 4 0;
#X connect 2 0 5 0;
#X connect 3 0 4 1;
#X connect 4 0 1 0;
#X connect 5 0 3 0;
#X restore 12 287 pd asynchfilter;
#X text 163 339 <-----add your own grain-level events here!;
#X obj 305 236 random_range 0 \$2;
#X obj 334 485 print symy;
#X obj 284 505 print kene;
#X msg 283 429 set 1003-1-zample;
#X obj 283 455 unpack s s;
#X obj 349 537 symbol;
#X msg 390 507 bang;
#X msg 327 563 set \$1;
#X msg 326 593 1003-1-zample;
#X obj -62 172 unpack s s;
#X obj -16 204 symbol;
#X msg -38 230 set \$1;
#X obj 11 163 t a b;
#X connect 2 0 20 1;
#X connect 3 0 12 1;
#X connect 3 0 13 1;
#X connect 3 0 23 0;
#X connect 3 1 7 0;
#X connect 3 2 6 0;
#X connect 3 3 8 0;
#X connect 4 0 5 0;
#X connect 5 0 18 0;
#X connect 5 0 13 2;
#X connect 6 0 5 1;
#X connect 6 0 2 2;
#X connect 7 0 4 0;
#X connect 7 0 2 1;
#X connect 8 0 2 3;
#X connect 9 0 21 0;
#X connect 10 0 11 0;
#X connect 11 0 2 0;
#X connect 12 0 0 0;
#X connect 12 1 1 0;
#X connect 13 0 12 0;
#X connect 14 0 8 1;
#X connect 14 1 8 2;
#X connect 15 0 7 1;
#X connect 15 1 7 2;
#X connect 16 0 6 1;
#X connect 16 1 6 2;
#X connect 17 0 23 1;
#X connect 17 1 23 2;
#X connect 18 0 3 0;
#X connect 18 1 21 1;
#X connect 19 0 32 0;
#X connect 19 1 11 1;
#X connect 20 0 13 0;
#X connect 20 1 35 0;
#X connect 21 0 20 0;
#X connect 23 0 10 0;
#X connect 26 0 27 0;
#X connect 27 0 25 0;
#X connect 27 1 24 0;
#X connect 27 1 28 1;
#X connect 28 0 30 0;
#X connect 29 0 28 0;
#X connect 30 0 31 0;
#X connect 32 1 33 1;
#X connect 33 0 34 0;
#X connect 34 0 9 0;
#X connect 35 0 9 0;
#X connect 35 1 33 0;
