#N canvas 325 195 1256 824 10;
#X obj 598 155 e_pitchshift;
#X msg 659 116 pitch \$1;
#N canvas 86 276 827 710 REFERENCE 0;
#X text 114 424 See also:;
#X text 114 204 Inlet 0: Audio input signal;
#X text 114 224 Inlet 1: 'pitch <float>' pitch shift amount in semitones.
;
#X text 114 244 Outlet 0: Audio output signal;
#X text 114 524 Tags: Audio;
#X text 114 304 Description: Pitches incoming audio in semitones according
to the control value set in Inlet 1 - this effect differs from e_freqshift
in that it still retains the harmonic structure of the signal.;
#X text 114 121 Name: e_ableton_pitchshifter;
#X text 114 141 Summary: Shift pitch of incoming signal w/ LFO;
#X coords 0 -1 1 1 450 450 1 100 100;
#X restore -223 62 pd REFERENCE;
#X obj -225 18 cnv 15 450 20 empty empty empty 20 12 0 14 -261234 -66577
0;
#X obj -222 20 e_pitchshift;
#X text 597 90 Pitch Shift;
#X obj 97 372 e_freqshift;
#X obj 326 186 g_tgl on;
#X obj 255 214 hsl 128 15 0 1 0 0 empty empty empty -2 -8 0 10 -262144
-1 -1 581 1;
#X msg 424 229 waveform sine;
#X msg 424 275 waveform saw;
#X msg 424 252 waveform tri;
#X obj 326 154 g_nbx freq;
#X obj 250 123 g_hsl phase 0 1;
#X obj 250 154 g_nbx updates;
#X text 511 253 select waveform;
#X text 511 278 <= default;
#X obj 306 364 c_lfo MYLFO;
#X obj 306 406 m_scale 0 1 70 120;
#X floatatom 306 479 5 0 0 0 - - -;
#X msg 455 405 db;
#X floatatom 437 429 5 -0.1 200 0 - - -;
#X obj 267 518 hsl 128 15 -4 4 0 0 empty empty empty -2 -8 0 10 -262144
-1 -1 0 1;
#X obj 556 350 c_xfade;
#X text 693 319 third number is predelay;
#X obj 555 377 *~ 0.5;
#X text 53 20 - ableton style pitchshifter;
#X obj 250 185 g_nbx lfo_val;
#X msg 169 190 lfo_val \$1;
#X obj 536 75 inlet~;
#X obj 253 264 g_hradio waveform 3;
#X obj 306 501 spigot;
#X obj 339 475 tgl 15 0 empty empty empty 17 7 0 10 -262144 -1 -1 0
1;
#X obj 252 233 g_nbx min_out;
#X obj 329 233 g_nbx max_out;
#X obj 255 294 g_hsl dry-wet 0 1;
#X obj 864 199 sel 0 1 2;
#X obj 556 549 outlet~;
#X obj 596 75 inlet;
#X obj 331 264 g_nbx shift_sm;
#X msg 419 170 shift_sm \$1;
#X msg 398 615 bang;
#X msg 205 269 \$1;
#X obj 422 204 sel 0 1 2;
#X msg 205 299 \$1;
#X msg 205 239 \$1;
#X obj 465 329 t b f;
#X msg 175 249 \$1;
#X obj 505 329 t b f;
#X obj 464 356 pack 0 0;
#X msg 439 379 0 1 \$1 \$2;
#X obj 595 319 pack 0 200 100;
#X connect 0 0 23 1;
#X connect 1 0 0 1;
#X connect 7 0 17 1;
#X connect 9 0 17 1;
#X connect 10 0 17 1;
#X connect 11 0 17 1;
#X connect 12 0 7 0;
#X connect 13 0 14 0;
#X connect 14 0 12 0;
#X connect 17 0 8 0;
#X connect 17 0 18 0;
#X connect 17 0 28 0;
#X connect 18 0 19 0;
#X connect 19 0 1 0;
#X connect 19 0 31 0;
#X connect 20 0 18 5;
#X connect 21 0 18 5;
#X connect 23 0 25 0;
#X connect 25 0 37 0;
#X connect 28 0 27 0;
#X connect 29 0 0 0;
#X connect 29 0 23 0;
#X connect 30 0 42 0;
#X connect 31 0 22 0;
#X connect 32 0 31 1;
#X connect 33 0 45 0;
#X connect 34 0 47 0;
#X connect 35 0 44 0;
#X connect 36 0 9 0;
#X connect 36 1 11 0;
#X connect 36 2 41 0;
#X connect 38 0 40 0;
#X connect 39 0 1 0;
#X connect 40 0 39 0;
#X connect 41 0 10 0;
#X connect 42 0 43 0;
#X connect 43 0 9 0;
#X connect 43 1 11 0;
#X connect 43 2 10 0;
#X connect 44 0 51 0;
#X connect 45 0 46 0;
#X connect 46 0 49 0;
#X connect 46 1 49 0;
#X connect 47 0 48 0;
#X connect 48 0 49 0;
#X connect 48 1 49 1;
#X connect 49 0 50 0;
#X connect 50 0 18 1;
#X connect 51 0 23 2;
#X coords 0 -1 1 1 150 220 1 250 100;
