#N canvas 92 493 736 339 10;
#X floatatom 1 43 8 0 0 0 - - -;
#X obj 4 23 hsl 128 15 0 0.5 0 0 empty empty Str_<_<_<_|_>_>_>_Mono
-2 7 0 10 -262144 -1 -1 0 1;
#X obj -120 87 e_pan;
#X obj -212 87 e_pan;
#X obj -211 28 inlet~;
#X obj -121 28 inlet~;
#X obj -211 148 outlet~;
#X obj -121 148 outlet~;
#X obj 1 62 - 1;
#X obj 1 82 * -1;
#X text 13 140 Convert a Stereo signal to Mono sig;
#X obj 77 68 s \$0-stereo-mono;
#X obj 147 -2 r \$0-stereo-mono;
#X msg 147 13 set \$1;
#X obj 279 29 inlet;
#X obj 279 145 outlet;
#X obj 279 56 route save;
#N canvas 342 1122 445 165 dispatchers 0;
#X obj 83 18 inlet;
#X obj 83 46 u_dispatch \$0 stereo-mono;
#X connect 0 0 1 0;
#X restore 346 82 pd dispatchers;
#X obj 279 106 u_loader s_au-feat-\$1 \$0;
#X obj 201 26 loadbang;
#X connect 0 0 8 0;
#X connect 0 0 3 1;
#X connect 1 0 0 0;
#X connect 1 0 11 0;
#X connect 2 0 6 0;
#X connect 2 1 7 0;
#X connect 3 0 6 0;
#X connect 3 1 7 0;
#X connect 4 0 3 0;
#X connect 5 0 2 0;
#X connect 8 0 9 0;
#X connect 9 0 2 1;
#X connect 12 0 13 0;
#X connect 13 0 1 0;
#X connect 14 0 16 0;
#X connect 16 0 18 0;
#X connect 16 1 17 0;
#X connect 18 0 15 0;
#X connect 19 0 0 0;
#X coords 0 -1 1 1 135 40 1 0 0;
