#N canvas 82 235 936 705 10;
#X msg 332 463 help;
#X obj 305 194 g_nhsl aux1 0 1;
#X obj 305 139 g_nhsl level 0 110;
#X obj 305 352 g_tgl mute;
#X obj 305 405 s \$0-strip;
#X msg 385 459 save;
#X obj 385 478 t a b;
#X obj 327 541 u_cocollect;
#X obj 282 433 r \$0-strip;
#X obj 305 244 g_nhsl aux2 0 1;
#X obj 305 219 g_symbol aux1name;
#X obj 305 269 g_symbol aux2name;
#X obj 232 455 inlet~;
#X obj 165 638 outlet~;
#X obj 198 602 outlet~;
#X obj 385 353 bng 15 250 50 0 empty empty save 17 7 1 10 -262144 -1
-1;
#X obj 305 60 inlet;
#X obj 233 562 outlet~;
#X obj 268 526 outlet~;
#X obj 327 566 outlet;
#X obj 443 425 symbol \$1;
#X msg 443 461 aux1name \$1-1 \, aux2name \$1-2;
#X obj 385 380 bng 15 250 50 0 empty empty autoaux 17 7 1 10 -262144
-1 -1;
#X text 516 428 autoaux: rename aux from arg1;
#N canvas 172 83 586 377 LICENSE-GPL 0;
#X text 57 88 This program is free software: you can redistribute it
and/or modify it under the terms of the GNU General Public License
as published by the Free Software Foundation \, either version 3 of
the License \, or (at your option) any later version.;
#X text 58 168 This program is distributed in the hope that it will
be useful \, but WITHOUT ANY WARRANTY \; without even the implied warranty
of MERCHANTABILITY or FITNESS FOR A PARTICULAR PURPOSE. See the GNU
General Public License for more details.;
#X text 57 261 You should have received a copy of the GNU General Public
License along with this program. If not \, see <http://www.gnu.org/licenses/>.
;
#X text 61 54 Copyright (C) 2009 \, Reality Jockey Ltd.;
#X text 60 325 See the file LICENSE.txt for the full license text.
;
#X restore 600 56 pd LICENSE-GPL;
#N canvas 0 22 450 300 meter 0;
#X obj 22 27 inlet~;
#X obj 26 69 env~;
#X obj 192 113 f;
#X msg 191 76 0;
#X obj 116 111 moses 0;
#X obj 162 174 outlet;
#X msg 194 29 bang;
#X obj 89 28 inlet~;
#X obj 93 70 env~;
#X obj 194 51 del 500;
#X connect 0 0 1 0;
#X connect 1 0 4 0;
#X connect 2 0 4 1;
#X connect 3 0 4 1;
#X connect 4 1 2 0;
#X connect 4 1 5 0;
#X connect 4 1 6 0;
#X connect 6 0 9 0;
#X connect 7 0 8 0;
#X connect 8 0 4 0;
#X connect 9 0 3 0;
#X restore 31 337 pd meter;
#X obj 31 359 int;
#X obj 31 380 - 100;
#X obj 31 406 s \$0-meter;
#X obj 305 381 nbx 3 14 -1e+037 1e+037 0 0 empty \$0-meter empty 0
-8 0 10 -262144 -1 -1 -35 256;
#X msg 482 102 mute 0;
#X obj 482 41 loadbang;
#X obj 351 77 r \$0-GUI;
#N canvas 967 1364 598 302 gui_update 0;
#X obj 15 37 inlet;
#X obj -45 225 s \$0-GUI;
#X obj 86 8 r RJ_SCENE_LOAD;
#X msg 86 59 bang;
#X msg 15 91 Rpan 0.669291 \, Lpan 0.141732 \, aux2 0.556962 \, aux1
0.860759 \, level 57.0886 \, mute 0 \, Rpan 1 \, Lpan 0 \, aux2 0 \,
aux1 0 \, level 98.8608 \, mute 0 \, Rpan 1 \, Lpan 0 \, aux2 0 \,
aux1 0 \, level 98.8608 \, mute 0 \, Rpan 1 \, Lpan 0 \, aux2 0 \,
aux1 0 \, level 98.8608 \, mute 0 \, Rpan 1 \, Lpan 0 \, aux2 0 \,
aux1 0 \, level 98.8608 \, mute 0 \, Rpan 1 \, Lpan 0 \, aux2 0 \,
aux1 0 \, level 98.8608 \, mute 0 \, Rpan 1 \, Lpan 0 \, aux2 0 \,
aux1 0 \, level 91.5228 \, mute 0 \, Rpan 1 \, Lpan 0 \, aux2 0 \,
aux1 0 \, level 91.5228 \, mute 0 \, Rpan 1 \, Lpan 0 \, aux2 0 \,
aux1 0 \, level 91.5228 \, mute 0 \,;
#X obj 70 35 t b b;
#X text 118 40 TM: update this method as this is not an elegant solutions
to update the GUI but I havent found anything else. It only clears
when it receives |save( from within the object;
#X connect 0 0 4 0;
#X connect 2 0 5 0;
#X connect 3 0 4 0;
#X connect 4 0 1 0;
#X connect 5 1 3 0;
#X restore 409 566 pd gui_update;
#X obj 305 294 g_hsl Lpan 0 1;
#X obj 305 320 g_hsl Rpan 0 1;
#X msg 502 62 Rpan 1;
#X msg 492 82 Lpan 0;
#X obj 166 495 u_channelstrip_st_tm \$1;
#X obj 165 455 inlet~;
#X obj 305 165 g_nhsl level_mod 0 110;
#X connect 0 0 38 2;
#X connect 1 0 10 0;
#X connect 2 0 40 0;
#X connect 3 0 4 0;
#X connect 5 0 6 0;
#X connect 6 0 38 2;
#X connect 6 1 7 1;
#X connect 7 0 19 0;
#X connect 7 0 33 0;
#X connect 8 0 38 2;
#X connect 9 0 11 0;
#X connect 10 0 9 0;
#X connect 11 0 34 0;
#X connect 12 0 38 1;
#X connect 15 0 5 0;
#X connect 16 0 2 0;
#X connect 20 0 21 0;
#X connect 21 0 2 0;
#X connect 22 0 20 0;
#X connect 25 0 26 0;
#X connect 26 0 27 0;
#X connect 27 0 28 0;
#X connect 30 0 2 0;
#X connect 31 0 30 0;
#X connect 31 0 36 0;
#X connect 31 0 37 0;
#X connect 32 0 2 0;
#X connect 34 0 35 0;
#X connect 35 0 3 0;
#X connect 36 0 2 0;
#X connect 37 0 2 0;
#X connect 38 0 13 0;
#X connect 38 0 25 0;
#X connect 38 1 14 0;
#X connect 38 1 25 1;
#X connect 38 2 17 0;
#X connect 38 3 18 0;
#X connect 38 4 7 0;
#X connect 39 0 38 0;
#X connect 40 0 1 0;
#X coords 0 -1 1 1 150 300 2 300 100;
