#N canvas 578 0 598 654 10;
#X obj -1065 195 list-find;
#X floatatom -949 212 5 0 0 1 hits - -;
#X msg -1065 166 2;
#X obj -949 231 > 0;
#X obj -1065 217 ==;
#X obj -1065 304 +;
#X obj -1064 330 sel 2;
#X obj -1065 240 t a b;
#X obj -1038 287 f;
#X msg -945 273 1;
#X msg -1023 490 2 3 4 5;
#X msg -896 480 2 3 4 5;
#X obj -1065 139 t b a a;
#X obj -976 117 t a b;
#X obj -1117 445 list-extend;
#X obj -1116 466 list-accum;
#X obj -1116 490 sel 0;
#X obj -789 431 list-extend;
#X obj -788 452 list-accum;
#X obj -789 476 sel 0;
#X obj -1063 515 add2_comma;
#X msg -1113 517 set;
#X msg -789 500 set;
#X obj -896 502 add2_comma;
#X obj -1113 610 outlet any-position;
#X obj -976 14 inlet find this;
#X obj -1215 14 inlet find it in this set of messages;
#X obj -949 252 sel 1;
#X obj -896 608 outlet in-position;
#X obj -790 18 inlet position;
#X obj -976 164 list trim;
#X obj -976 139 list prepend set;
#X obj -1023 459 list trim;
#X obj -1023 434 list prepend set;
#X connect 0 0 4 0;
#X connect 0 1 1 0;
#X connect 1 0 3 0;
#X connect 1 0 14 0;
#X connect 2 0 0 0;
#X connect 3 0 27 0;
#X connect 4 0 7 0;
#X connect 4 0 17 0;
#X connect 5 0 6 0;
#X connect 6 0 11 0;
#X connect 7 0 5 0;
#X connect 7 1 8 0;
#X connect 8 0 5 1;
#X connect 9 0 8 1;
#X connect 10 0 20 0;
#X connect 11 0 23 0;
#X connect 12 0 2 0;
#X connect 12 1 0 1;
#X connect 12 2 33 0;
#X connect 13 0 31 0;
#X connect 13 1 14 1;
#X connect 13 1 17 1;
#X connect 13 1 21 0;
#X connect 13 1 22 0;
#X connect 14 0 15 0;
#X connect 15 0 16 0;
#X connect 16 0 21 0;
#X connect 17 0 18 0;
#X connect 18 0 19 0;
#X connect 19 0 22 0;
#X connect 20 0 24 0;
#X connect 21 0 24 0;
#X connect 22 0 28 0;
#X connect 23 0 28 0;
#X connect 25 0 13 0;
#X connect 26 0 12 0;
#X connect 27 0 9 0;
#X connect 27 0 10 0;
#X connect 29 0 4 1;
#X connect 30 0 2 0;
#X connect 31 0 30 0;
#X connect 32 0 10 0;
#X connect 32 0 11 0;
#X connect 33 0 32 0;
