#N struct 1249-symarray float x array symbols 1249-sym;
#N struct 1249-sym symbol name float on;
#N canvas 903 484 976 501 10;
#X text 625 41 Data structures:;
#X text 624 166 This gets saves with the patch \, if needed;
#N canvas 140 1533 529 303 \$0-sym 0;
#X text 75 124 Just a symbol \, which will store a symbolc called name.
Intended to be used as array elements in symarray.;
#X obj 143 82 struct \$0-sym symbol name float on;
#X restore 626 68 pd \$0-sym;
#N canvas 705 1536 836 304 \$0-symarray 0;
#X obj 138 64 struct \$0-symarray float x array symbols \$0-sym;
#X obj 142 183 drawpolygon 900 1 0 0 0 10 10 10 10 0 0 0;
#X text 119 159 Just something to click on and open the builtinn editor.
;
#X text 122 109 The interesting bit here is the "symbols" array which
stores an array of "\$0-sym" items that in turn have "name"s;
#X restore 626 92 pd \$0-symarray;
#N canvas 133 1168 450 300 \$0-data 0;
#X scalar 1249-symarray 0 \; symbol 0 \; \;;
#X restore 627 143 pd \$0-data;
#X obj 457 345 r \$0-symarray-p;
#X obj 271 370 element \$0-symarray symbols;
#N canvas 0 0 619 485 init 0;
#X obj 213 251 pointer;
#X obj 76 325 pointer;
#X msg 89 305 bang;
#X msg 227 143 clear;
#X msg 76 249 0;
#X text 131 304 resend;
#X msg 213 226 traverse \$1 \, bang;
#X obj 213 198 symbol pd-\$0-data;
#X obj 76 275 append \$0-symarray x;
#X obj 76 345 s \$0-symarray-p;
#X obj 76 30 loadbang;
#X obj 227 167 s pd-\$0-data;
#X obj 76 83 t b b b;
#X text 274 254 where to create? In [pd \$0-data]!;
#X obj 88 54 r \$0-reset;
#X connect 0 0 8 1;
#X connect 1 0 9 0;
#X connect 2 0 1 0;
#X connect 3 0 11 0;
#X connect 4 0 8 0;
#X connect 6 0 0 0;
#X connect 7 0 6 0;
#X connect 8 0 1 0;
#X connect 10 0 12 0;
#X connect 12 0 4 0;
#X connect 12 1 7 0;
#X connect 12 2 3 0;
#X connect 14 0 12 0;
#X restore 504 66 pd init;
#X obj 71 64 inlet;
#X obj 330 60 inlet;
#X obj 71 204 list trim;
#X obj 71 352 s \$0-reset;
#X text 69 33 lookup data by index;
#X text 262 34 add data. syntax: <index> <symbol to store>;
#N canvas 1079 612 542 307 change-size 0;
#X obj 98 158 max;
#X obj 131 158 f;
#X obj 98 25 inlet;
#X obj 98 218 setsize \$0-symarray symbols;
#X obj 284 191 r \$0-symarray-p;
#X obj 98 189 change -1;
#X obj 116 79 r \$0-reset;
#X obj 116 99 t b b;
#X msg 167 160 set -1;
#X obj 98 51 + 1;
#X msg 116 120 0;
#X obj 61 251 s \$0-size;
#X connect 0 0 1 0;
#X connect 0 0 5 0;
#X connect 1 0 0 1;
#X connect 2 0 9 0;
#X connect 4 0 3 1;
#X connect 5 0 3 0;
#X connect 5 0 11 0;
#X connect 6 0 7 0;
#X connect 7 0 10 0;
#X connect 7 1 8 0;
#X connect 8 0 5 0;
#X connect 9 0 0 0;
#X connect 10 0 0 1;
#X restore 409 196 pd change-size;
#X obj 330 164 t b f f;
#N canvas 563 38 611 287 set-symbol 0;
#X obj 91 44 inlet;
#X obj 249 60 inlet;
#X obj 435 97 r \$0-symarray-p;
#X obj 249 119 element \$0-symarray symbols;
#X obj 91 151 set -symbol \$0-sym name;
#X obj 123 216 set \$0-sym on;
#X obj 91 102 t a b;
#X msg 123 193 1;
#X connect 0 0 6 0;
#X connect 1 0 3 0;
#X connect 2 0 3 1;
#X connect 3 0 4 1;
#X connect 3 0 5 1;
#X connect 6 0 4 0;
#X connect 6 1 7 0;
#X connect 7 0 5 0;
#X restore 330 243 pd set-symbol;
#X obj 330 119 list split 1;
#X obj 330 196 list;
#X msg 504 91 clear;
#X obj 504 115 s pd-\$0-data;
#N canvas 14 48 581 539 print 0;
#X obj 64 205 max;
#X obj 64 27 inlet;
#X obj 64 230 until;
#X obj 64 266 f;
#X obj 97 264 + 1;
#X msg 112 231 0;
#X obj 303 296 r \$0-symarray-p;
#X obj 117 321 element \$0-symarray symbols;
#X obj 64 290 t f f;
#X obj 265 146 print -n;
#X obj 265 103 symbol \$0-symarray;
#X msg 265 124 --------- symbolarray: \$1 contents ---;
#X obj 64 439 print -n;
#X obj 110 108 r \$0-symarray-p;
#X obj 64 151 getsize \$0-symarray symbols;
#X obj 64 131 pointer;
#X obj 64 65 t b b;
#X obj 64 178 t a b;
#X obj 117 349 get \$0-sym name on;
#X obj 64 411 pack 0 s 0;
#X connect 0 0 2 0;
#X connect 1 0 16 0;
#X connect 2 0 3 0;
#X connect 3 0 4 0;
#X connect 3 0 8 0;
#X connect 4 0 3 1;
#X connect 5 0 3 1;
#X connect 6 0 7 1;
#X connect 7 0 18 0;
#X connect 8 0 19 0;
#X connect 8 1 7 0;
#X connect 10 0 11 0;
#X connect 11 0 9 0;
#X connect 13 0 15 1;
#X connect 14 0 17 0;
#X connect 15 0 14 0;
#X connect 16 0 15 0;
#X connect 16 1 10 0;
#X connect 17 0 0 0;
#X connect 17 1 5 0;
#X connect 18 0 19 1;
#X connect 18 1 19 2;
#X connect 19 0 12 0;
#X restore 117 331 pd print;
#X text 624 122 Here we create our symbolarray;
#X obj 330 221 route symbol;
#X obj 330 96 list split 2;
#N canvas 228 198 627 317 LICENSE-BSD 0;
#X text 121 56 This software is copyrighted by Miller Puckette \, Reality
Jockey Ltd. and others. The terms (the "Standard Improved BSD License")
apply to all files associated with the software unless explicitly disclaimed
in individual files.;
#X text 123 148 See the file LICENSE.txt for the full license text.
;
#X restore 821 46 pd LICENSE-BSD;
#X obj 271 392 get \$0-sym name on;
#X obj 271 422 spigot;
#N canvas 642 192 581 539 dump 0;
#X obj 64 205 max;
#X obj 64 27 inlet;
#X obj 64 230 until;
#X obj 64 266 f;
#X obj 97 264 + 1;
#X msg 112 231 0;
#X obj 303 296 r \$0-symarray-p;
#X obj 117 321 element \$0-symarray symbols;
#X obj 64 290 t f f;
#X obj 110 108 r \$0-symarray-p;
#X obj 64 151 getsize \$0-symarray symbols;
#X obj 64 131 pointer;
#X obj 64 65 t b b;
#X obj 64 178 t a b;
#X obj 117 349 get \$0-sym name on;
#X obj 64 479 outlet;
#X obj 64 455 spigot;
#X obj 64 411 pack 0 s;
#X connect 0 0 2 0;
#X connect 1 0 12 0;
#X connect 2 0 3 0;
#X connect 3 0 4 0;
#X connect 3 0 8 0;
#X connect 4 0 3 1;
#X connect 5 0 3 1;
#X connect 6 0 7 1;
#X connect 7 0 14 0;
#X connect 8 0 17 0;
#X connect 8 1 7 0;
#X connect 9 0 11 1;
#X connect 10 0 13 0;
#X connect 11 0 10 0;
#X connect 12 0 11 0;
#X connect 13 0 0 0;
#X connect 13 1 5 0;
#X connect 14 0 17 1;
#X connect 14 1 16 1;
#X connect 16 0 15 0;
#X connect 17 0 16 0;
#X restore 163 293 pd dump;
#N canvas 0 0 487 317 del 0;
#X obj 261 87 r \$0-symarray-p;
#X obj 75 112 element \$0-symarray symbols;
#X obj 75 175 set \$0-sym on;
#X obj 75 141 list prepend 0;
#X obj 75 88 f;
#X obj 75 62 inlet;
#X connect 0 0 1 1;
#X connect 1 0 3 0;
#X connect 3 0 2 0;
#X connect 4 0 1 0;
#X connect 5 0 4 0;
#X restore 209 263 pd del;
#X obj 324 266 r \$0-size;
#X floatatom 324 292 5 0 0 0 - - -;
#X obj 271 293 moses;
#X obj 271 268 f;
#X obj 71 231 route reset print dump delete arraysize;
#X obj 394 292 f;
#X obj 394 457 outlet arraysize;
#X obj 543 457 outlet dump;
#X obj 271 457 outlet index;
#X connect 5 0 6 1;
#X connect 6 0 26 0;
#X connect 8 0 10 0;
#X connect 9 0 24 0;
#X connect 10 0 34 0;
#X connect 15 0 18 0;
#X connect 15 1 16 1;
#X connect 15 2 14 0;
#X connect 17 0 15 0;
#X connect 17 1 18 1;
#X connect 17 2 18 1;
#X connect 18 0 23 0;
#X connect 19 0 20 0;
#X connect 23 0 16 0;
#X connect 24 0 17 0;
#X connect 26 0 27 0;
#X connect 26 1 27 1;
#X connect 27 0 38 0;
#X connect 28 0 37 0;
#X connect 30 0 32 1;
#X connect 30 0 31 0;
#X connect 30 0 35 1;
#X connect 32 0 6 0;
#X connect 33 0 32 0;
#X connect 34 0 11 0;
#X connect 34 1 21 0;
#X connect 34 2 28 0;
#X connect 34 3 29 0;
#X connect 34 4 35 0;
#X connect 34 5 33 0;
#X connect 35 0 36 0;
