#N canvas 741 1226 764 536 10;
#X declare -path ./abs;
#X obj 11 48 cnv 15 450 150 empty empty file_granulator 300 140 0 14
-71869 -66577 0;
#X obj 13 51 tgl 20 1 \$0-gran1-mute empty empty 0 -6 0 8 -258699 -1
-1 1 1;
#X obj 51 55 vsl 20 96 -100 20 0 0 \$0-gran1gain empty empty 5 12 0
12 -44926 -1 -1 4900 1;
#X obj 86 77 hsl 100 15 2 200 1 1 \$0-zample_envelope_min empty envelope
6 7 0 8 -262144 -1 -1 400 1;
#X obj 194 77 nbx 5 14 0 50 0 1 \$0-zample_envelope_sprd empty range
60 8 0 10 -262144 -1 -1 0 256;
#X obj 86 98 hsl 100 15 1 5000 1 1 \$0-zample_sustain_min empty length
6 7 0 8 -262144 -1 -1 4600 1;
#X obj 194 99 nbx 5 14 0 100 0 1 \$0-zample_sustain_sprd empty range
60 8 0 10 -262144 -1 -1 0 256;
#X obj 86 119 hsl 100 15 0 100 0 1 \$0-zample_gain_min 20-midi gain
6 7 0 8 -262144 -1 -1 8400 1;
#X obj 194 120 nbx 5 14 0 100 0 1 \$0-zample_gain_sprd empty range
60 8 0 10 -262144 -1 -1 100 256;
#X obj 86 139 hsl 100 15 0 100 0 1 \$0-zample_pan_sprd empty stereo_spread
6 7 0 8 -262144 -1 -1 1700 1;
#X obj 197 139 hsl 75 15 0 120 0 1 \$0-gran1pan empty pan 1 8 0 8 -262144
-1 -1 3300 1;
#X obj 197 158 hsl 75 15 1 32 0 1 \$0-zample_voices empty vox 15 9
0 8 -262144 -1 -1 0 1;
#X obj 86 158 hsl 100 15 99 0 0 1 \$0-zample_asynch empty asynch 15
9 0 8 -262144 -1 -1 9900 1;
#X obj 295 139 nbx 5 14 0 10000 0 1 \$0-readspread empty grain_spread
60 7 0 10 -262144 -1 -1 0 256;
#X obj 295 77 nbx 5 14 -1e+037 1e+037 0 0 readpositionin \$0-tableloc
scan_target 60 7 0 10 -62784 -1 -1 0 256;
#X obj 295 98 nbx 6 14 -1e+037 1e+037 0 0 empty \$0-scan_speed scan_interpolation
60 7 0 10 -62784 -1 -1 1 256;
#X obj 295 159 nbx 5 14 0 10000 0 0 empty \$0-ave_g_length ave_grain_length
60 7 0 10 -62784 -1 -1 57.1435 256;
#N canvas 0 0 450 300 cpu 0;
#X obj 124 253 outlet;
#X obj 118 168 cputime;
#X obj 118 28 loadbang;
#X obj 118 112 metro 1000;
#X msg 118 56 1;
#X floatatom 118 84 0 0 0 0 - - -;
#X obj 118 140 t b b;
#X obj 118 228 * 0.1;
#X obj 118 197 int;
#X text 163 84 <-- on/off;
#X connect 1 0 8 0;
#X connect 2 0 4 0;
#X connect 3 0 6 0;
#X connect 4 0 5 0;
#X connect 5 0 3 0;
#X connect 6 0 1 0;
#X connect 6 1 1 1;
#X connect 7 0 0 0;
#X connect 8 0 7 0;
#X restore -32 83 pd cpu;
#N canvas 19 248 456 545 guts 1;
#X obj 185 347 pack 0 50;
#X obj 187 207 pack 0 50;
#X obj 175 77 * -1;
#X obj 185 306 + 100;
#X obj 185 326 dbtorms;
#N canvas 7 176 560 429 scanner 0;
#X obj 146 47 / 100;
#X obj 318 55 * 2;
#X obj -1 171 random_range 0 0;
#X obj 52 104 * -1;
#X obj -1 216 line;
#X obj -1 265 +;
#X obj 52 74 / 10;
#X obj -1 138 metro 100;
#X obj -1 194 pack 0 5;
#X obj 318 148 f;
#X obj 358 148 f;
#X obj 358 117 t b f;
#X obj 318 117 t b f;
#X obj 318 170 +;
#X obj 52 47 r \$0-jitter;
#X obj 146 19 r \$0-readspread;
#X obj 146 110 s \$0-zample_start_sprd;
#X obj 318 16 r \$0-zample_envelope_min;
#X obj 358 54 r \$0-zample_sustain_min;
#X obj 318 192 s \$0-ave_g_length;
#X obj 15 19 r \$0-readpositionout;
#X obj -1 295 s \$0-zample_start_min;
#X connect 0 0 16 0;
#X connect 1 0 12 0;
#X connect 2 0 8 0;
#X connect 3 0 2 1;
#X connect 4 0 5 0;
#X connect 5 0 21 0;
#X connect 6 0 3 0;
#X connect 6 0 2 2;
#X connect 7 0 2 0;
#X connect 8 0 4 0;
#X connect 9 0 13 0;
#X connect 10 0 13 1;
#X connect 11 0 10 0;
#X connect 11 0 9 0;
#X connect 11 1 10 1;
#X connect 12 0 10 0;
#X connect 12 0 9 0;
#X connect 12 1 9 1;
#X connect 13 0 19 0;
#X connect 14 0 6 0;
#X connect 15 0 0 0;
#X connect 17 0 1 0;
#X connect 18 0 11 0;
#X connect 20 0 5 1;
#X connect 20 0 7 0;
#X restore 72 3 pd scanner;
#X obj 187 228 line~;
#X obj 155 257 *~;
#X obj 276 256 *~;
#X obj 185 367 line~;
#X obj 154 396 *~;
#X obj 275 396 *~;
#X obj 291 98 pack 0 50;
#X obj 211 51 / 100;
#X obj 175 100 pack 0 50;
#X obj 154 146 *~;
#X obj 275 146 *~;
#X obj 176 121 line~;
#X obj 291 119 line~;
#X obj 211 77 - 1;
#X obj 173 424 pvu~;
#X obj 294 424 pvu~;
#X obj 153 3 filegranulator 1 1 \$0;
#X obj 211 26 r \$0-gran1pan;
#X obj 185 285 r \$0-gran1gain;
#X obj 187 186 r \$0-gran1-mute;
#X obj 173 454 s \$0-main-l;
#X obj 183 474 s \$0-main-r;
#X obj 153 494 outlet~;
#X obj 274 494 outlet~;
#X connect 0 0 9 0;
#X connect 1 0 6 0;
#X connect 2 0 14 0;
#X connect 3 0 4 0;
#X connect 4 0 0 0;
#X connect 6 0 7 1;
#X connect 6 0 8 1;
#X connect 7 0 10 0;
#X connect 8 0 11 0;
#X connect 9 0 10 1;
#X connect 9 0 11 1;
#X connect 10 0 20 0;
#X connect 10 0 28 0;
#X connect 11 0 21 0;
#X connect 11 0 29 0;
#X connect 12 0 18 0;
#X connect 13 0 19 0;
#X connect 13 0 12 0;
#X connect 14 0 17 0;
#X connect 15 0 7 0;
#X connect 16 0 8 0;
#X connect 17 0 15 1;
#X connect 18 0 16 1;
#X connect 19 0 2 0;
#X connect 20 0 26 0;
#X connect 21 0 27 0;
#X connect 22 0 15 0;
#X connect 22 1 16 0;
#X connect 23 0 13 0;
#X connect 24 0 3 0;
#X connect 25 0 1 0;
#X restore 468 225 pd guts;
#X obj 14 99 nbx 2 14 -1e+037 1e+037 0 0 empty empty cpu 0 -6 0 10
-258699 -1 -1 4.6 256;
#N canvas 13 1087 596 319 load 0;
#X msg 21 44 bang;
#N canvas 91 345 463 336 zample-loader2 0;
#N canvas 0 0 450 300 (subpatch) 0;
#X array \$0-2-zample 2.304e+006 float 0;
#X coords 0 1 2.304e+006 -1 120 30 1;
#X restore 130 134 graph;
#X obj 52 78 inlet;
#X obj 51 110 openpanel;
#X obj 51 195 soundfiler;
#X obj 51 140 pack s \$0;
#X obj 61 215 pack f \$0;
#X msg 51 173 read -resize -maxsize 1e+007 \$1 \$2-2-zample;
#X obj 51 281 s \$0-2-zample_size;
#X msg 61 236 \; \$2-2-zample resize \$1;
#X connect 1 0 2 0;
#X connect 2 0 4 0;
#X connect 3 0 5 0;
#X connect 3 0 7 0;
#X connect 4 0 6 0;
#X connect 5 0 8 0;
#X connect 6 0 3 0;
#X restore 22 148 pd zample-loader2;
#X msg 71 64 bang;
#N canvas 373 603 467 327 zample-loader1 0;
#X obj 72 78 inlet;
#X obj 71 110 openpanel;
#X obj 71 195 soundfiler;
#N canvas 0 0 450 300 (subpatch) 0;
#X array \$0-1-zample 1e+007 float 0;
#X coords 0 1 1e+007 -1 120 30 1;
#X restore 150 74 graph;
#X obj 71 281 s \$0-1-zample_size;
#X obj 71 140 pack s \$0;
#X msg 71 173 read -resize -maxsize 1e+007 \$1 \$2-1-zample;
#X obj 81 215 pack f \$0;
#X msg 81 236 \; \$2-1-zample resize \$1;
#X connect 0 0 1 0;
#X connect 1 0 5 0;
#X connect 2 0 4 0;
#X connect 2 0 7 0;
#X connect 5 0 6 0;
#X connect 6 0 2 0;
#X connect 7 0 8 0;
#X restore 42 128 pd zample-loader1;
#X msg 21 84 bang;
#X msg 71 104 bang;
#N canvas 84 134 467 327 zample-loader3 0;
#X obj 72 78 inlet;
#X obj 71 110 openpanel;
#X obj 71 195 soundfiler;
#N canvas 0 0 450 300 (subpatch) 0;
#X array \$0-3-zample 1.92e+006 float 0;
#X coords 0 1 1.92e+006 -1 120 30 1;
#X restore 150 74 graph;
#X obj 71 140 pack s \$0;
#X obj 81 215 pack f \$0;
#X msg 71 173 read -resize -maxsize 1e+007 \$1 \$2-3-zample;
#X obj 71 281 s \$0-3-zample_size;
#X msg 81 236 \; \$2-3-zample resize \$1;
#X connect 0 0 1 0;
#X connect 1 0 4 0;
#X connect 2 0 5 0;
#X connect 2 0 7 0;
#X connect 4 0 6 0;
#X connect 5 0 8 0;
#X connect 6 0 2 0;
#X restore 42 168 pd zample-loader3;
#N canvas 93 587 463 336 zample-loader4 0;
#N canvas 0 0 450 300 (subpatch) 0;
#X array \$0-4-zample 705600 float 0;
#X coords 0 1 705599 -1 120 30 1;
#X restore 130 134 graph;
#X obj 52 78 inlet;
#X obj 51 110 openpanel;
#X obj 51 195 soundfiler;
#X obj 51 140 pack s \$0;
#X obj 61 215 pack f \$0;
#X msg 51 173 read -resize -maxsize 1e+007 \$1 \$2-4-zample;
#X obj 51 281 s \$0-4-zample_size;
#X msg 61 236 \; \$2-4-zample resize \$1;
#X connect 1 0 2 0;
#X connect 2 0 4 0;
#X connect 3 0 5 0;
#X connect 3 0 7 0;
#X connect 4 0 6 0;
#X connect 5 0 8 0;
#X connect 6 0 3 0;
#X restore 22 188 pd zample-loader4;
#X msg 171 44 bang;
#X msg 221 64 bang;
#X msg 171 84 bang;
#X msg 221 104 bang;
#N canvas 192 190 467 327 zample-loader5 0;
#X obj 72 78 inlet;
#X obj 71 110 openpanel;
#X obj 71 195 soundfiler;
#N canvas 0 0 450 300 (subpatch) 0;
#X array \$0-5-zample 705600 float 0;
#X coords 0 1 705599 -1 120 30 1;
#X restore 150 74 graph;
#X obj 71 140 pack s \$0;
#X obj 81 215 pack f \$0;
#X msg 71 173 read -resize -maxsize 1e+007 \$1 \$2-5-zample;
#X obj 71 281 s \$0-5-zample_size;
#X msg 81 236 \; \$2-5-zample resize \$1;
#X connect 0 0 1 0;
#X connect 1 0 4 0;
#X connect 2 0 5 0;
#X connect 2 0 7 0;
#X connect 4 0 6 0;
#X connect 5 0 8 0;
#X connect 6 0 2 0;
#X restore 192 128 pd zample-loader5;
#N canvas 192 190 463 336 zample-loader6 0;
#N canvas 0 0 450 300 (subpatch) 0;
#X array \$0-6-zample 3.2634e+006 float 0;
#X coords 0 1 3.2634e+006 -1 120 30 1;
#X restore 130 134 graph;
#X obj 52 78 inlet;
#X obj 51 110 openpanel;
#X obj 51 195 soundfiler;
#X obj 51 140 pack s \$0;
#X obj 61 215 pack f \$0;
#X msg 51 173 read -resize -maxsize 1e+007 \$1 \$2-6-zample;
#X obj 51 281 s \$0-6-zample_size;
#X msg 61 236 \; \$2-6-zample resize \$1;
#X connect 1 0 2 0;
#X connect 2 0 4 0;
#X connect 3 0 5 0;
#X connect 3 0 7 0;
#X connect 4 0 6 0;
#X connect 5 0 8 0;
#X connect 6 0 3 0;
#X restore 172 148 pd zample-loader6;
#N canvas 192 190 467 327 zample-loader7 0;
#X obj 72 78 inlet;
#X obj 71 110 openpanel;
#X obj 71 195 soundfiler;
#N canvas 0 0 450 300 (subpatch) 0;
#X array \$0-7-zample 705600 float 0;
#X coords 0 1 705599 -1 120 30 1;
#X restore 150 74 graph;
#X obj 71 140 pack s \$0;
#X obj 81 215 pack f \$0;
#X msg 71 172 read -resize -maxsize 1e+007 \$1 \$2-7-zample;
#X obj 71 281 s \$0-7-zample_size;
#X msg 81 236 \; \$2-7-zample resize \$1;
#X connect 0 0 1 0;
#X connect 1 0 4 0;
#X connect 2 0 5 0;
#X connect 2 0 7 0;
#X connect 4 0 6 0;
#X connect 5 0 8 0;
#X connect 6 0 2 0;
#X restore 193 168 pd zample-loader7;
#N canvas 192 190 463 336 zample-loader8 0;
#N canvas 0 0 450 300 (subpatch) 0;
#X array \$0-8-zample 705600 float 0;
#X coords 0 1 705599 -1 120 30 1;
#X restore 130 134 graph;
#X obj 52 78 inlet;
#X obj 51 110 openpanel;
#X obj 51 195 soundfiler;
#X obj 51 140 pack s \$0;
#X obj 61 215 pack f \$0;
#X msg 51 173 read -resize -maxsize 1e+007 \$1 \$2-8-zample;
#X obj 51 281 s \$0-8-zample_size;
#X msg 61 236 \; \$2-8-zample resize \$1;
#X connect 1 0 2 0;
#X connect 2 0 4 0;
#X connect 3 0 5 0;
#X connect 3 0 7 0;
#X connect 4 0 6 0;
#X connect 5 0 8 0;
#X connect 6 0 3 0;
#X restore 172 188 pd zample-loader8;
#X obj 33 11 sel 0 1 2 3 4 5 6 7;
#X obj 108 -39 r \$0-zample_number;
#X obj 61 -14 f 0;
#X obj -1 -40 r \$0-load-sample;
#X obj 284 35 u_load_sound_samples;
#X obj -134 28 u_load_sound_samples;
#X obj -124 32 u_load_sound_samples;
#X obj -114 35 u_load_sound_samples;
#X obj -114 35 u_load_sound_samples;
#X obj 266 28 u_load_sound_samples;
#X obj 276 33 u_load_sound_samples;
#X obj 294 39 u_load_sound_samples;
#X connect 0 0 3 0;
#X connect 2 0 1 0;
#X connect 4 0 6 0;
#X connect 5 0 7 0;
#X connect 8 0 12 0;
#X connect 9 0 13 0;
#X connect 10 0 14 0;
#X connect 11 0 15 0;
#X connect 16 0 21 0;
#X connect 16 1 22 0;
#X connect 16 2 23 0;
#X connect 16 3 24 0;
#X connect 16 4 25 0;
#X connect 16 5 26 0;
#X connect 16 6 20 0;
#X connect 16 7 27 0;
#X connect 17 0 18 1;
#X connect 18 0 16 0;
#X connect 19 0 18 0;
#X connect 20 0 14 0;
#X connect 21 0 3 0;
#X connect 22 0 1 0;
#X connect 23 0 6 0;
#X connect 24 0 7 0;
#X connect 25 0 12 0;
#X connect 26 0 13 0;
#X connect 27 0 15 0;
#X restore 468 205 pd load;
#X obj 86 178 hsl 100 15 0 500 0 1 \$0-jitter empty jitter 15 9 0 8
-262144 -1 -1 0 1;
#X obj 295 120 nbx 5 14 -1e+037 1e+037 0 0 empty \$0-zample_start_min
current_position 60 7 0 10 -62784 -1 -1 0 256;
#X obj 11 199 grid grid1 330 0 1000 90 1 10000 1 1 1 30 20 4 303;
#N canvas 133 523 692 396 table_locator 0;
#X obj 229 18 inlet;
#X obj 229 47 select 0;
#X obj 299 47 select 1;
#X obj 363 45 select 2;
#X msg 229 70 1;
#X msg 299 70 10;
#X msg 363 67 100;
#X obj 229 124 line;
#X obj -45 18 inlet;
#X obj 170 16 inlet;
#X obj -60 253 line;
#X obj 170 152 *;
#X obj -60 233 pack 0 0;
#X obj 160 195 t b f;
#X obj -60 192 f;
#X text -72 -3 x coordinates = read position;
#X text -4 255 range = 0-1000;
#X text 158 -3 y coordinates = scan speed interpolation;
#X text 181 251 range = 0-10000;
#X text 130 306 If you do not have the Grid object \, you can hack
this subpatch to control Particlechamber.;
#X obj -60 276 s \$0-readpositionout;
#X obj -9 305 s \$0-tableloc;
#X obj 170 274 s \$0-scan_speed;
#X obj 229 102 pack 0 100;
#X connect 0 0 1 0;
#X connect 0 0 2 0;
#X connect 0 0 3 0;
#X connect 1 0 4 0;
#X connect 2 0 5 0;
#X connect 3 0 6 0;
#X connect 4 0 23 0;
#X connect 5 0 23 0;
#X connect 6 0 23 0;
#X connect 7 0 11 1;
#X connect 8 0 14 1;
#X connect 8 0 21 0;
#X connect 9 0 11 0;
#X connect 10 0 20 0;
#X connect 11 0 22 0;
#X connect 11 0 13 0;
#X connect 12 0 10 0;
#X connect 13 0 14 0;
#X connect 13 1 12 1;
#X connect 14 0 12 0;
#X connect 23 0 7 0;
#X restore 21 289 pd table_locator;
#X obj 14 148 vradio 15 1 1 3 empty empty empty 0 -6 0 8 -262144 -1
-1 0;
#X text -84 154 gear-shift for;
#X text -84 169 interpolation;
#X text -84 183 speed;
#N canvas 303 1195 877 674 README 0;
#X text 453 209 The freeverb~ external can be downloaded here: http://www.akustische-kunst.org/puredata/main.html
;
#X text 7 320 Operation of Particlechamber:;
#X text 452 341 Asynch randomizes which grains are passed through \,
from almost none to all. Vox activates or deactivates each of the 32
voices. Grain_spread makes small adjustments in the read position \,
which can be used to either add a reverb- or chorus-like effect \,
or to completely time-smear a file. Jitter makes larger adjustments
in the read position \, resulting in various degrees of time-scrambling.
;
#X text 453 441 The XY controller at the bottom determines the read
position in the sample. This controller has an interpolation scale
\, adjustable by the gear-shift on the right. This means that Particlechamber
will scan more slowly or quickly through the file depending on the
cursor's Y position multiplied by the interpolation factor.;
#X text 278 6 Particlechamber by Derek Holzer [Umatic.nl];
#X text 241 565 Particlechamber is free software and comes without
any warrenty that it will do ANYTHING like what I say it will. Enjoy
it all the same.;
#X text 535 623 derek@umatic.nl;
#X text 28 398 The red buttons mute and unmute the file granulator
and the reverb. The large vertical sliders are gain for each section.
The reverb is post-fader from the file granulator \, and can be bypassed
either by muting it or with the wet/dry slider.;
#X text 29 341 Open the Load subpatch and click the bangs to load samples.
It is better to do this before you start playing \, because loading
soundfiles can cause audible glitches in PD's performance. Sorry...
;
#X text 28 468 The envelope is a linear ramp \, so a length of 0 means
a pure triangular "window" for each grain. [(envelope x 2)+ length=
average grain length in ms]. Stereo_spread randomly pans each grain
to a wider or lesser field. The range feature randomizes each parameter
as a percentage plus or minus the given number.;
#X text 453 137 It would be best to take Grid from the PD External
Repository: http://pure-data.sourceforge.net;
#X text 453 172 However \, Yves Degoyon's Grid external can also be
found here: http://ydegoyon.free.fr/software.html;
#X text 453 35 Particlechamber requires a few externals to run. It
uses Freeverb~ for its reverb section [although you could easily replace
it with another reverb] \, and uses Grid as a major GUI element [although
you could hack your way around it if you can't install Grid by sending
numbers directly to the table_locator subpatch. Look inside for details...]
;
#X text 7 36 Particlechamber is a 32-voice asynchronous granular synthesizer
for real-time transformation of a soundfile. It is loosely based on
the famous Travelizer instrument from Reaktor 3 \, however I think
it's much better because it is FREE!;
#X text 6 112 This abstraction can be used to time-stretch or -compress
a soundfile \, although there are other tools [such as Frank Barknecht's
Synchgrain object] which do this "nicer" \, but it's main strength
is in generating clouds of sonic particles \, time-scrambling a file
\, or creating abstract textures. If one does a bit of reverse engineering
\, it can also be used as a tool for learning about the techniques
of granular synthesis. I have left a subpatch inside the granreader
subpatch where others can add their own grain-level events \, such
as randomized or constant-Q filters or windowed envelopes \, to see
what is possible with this technique. Of course \, I can only highly
recommend Curtis Road's amazing book "Microsound" for those interested
in learning more.;
#X restore 520 226 pd README;
#X obj 11 4 cnv 15 450 40 empty empty Particlechamber 8 12 0 18 -233017
-66577 0;
#X text 15 27 32-voice asynchronous granular synthesizer;
#X text 353 29 derek@umatic.nl;
#N canvas 925 298 450 300 abs 0;
#X obj 85 27 declare -path ./abs;
#X restore 520 206 pd abs;
#X obj 83 55 hradio 15 1 1 8 \$0-zample_number empty sample_number
20 7 0 8 -262144 -1 -1 1;
#X obj 348 204 vu 10 80 \$0-main-l empty -1 -8 0 10 -66577 -1 1 0;
#X obj 388 204 vu 10 80 \$0-main-r empty -1 -8 0 10 -66577 -1 1 0;
#X obj 469 304 outlet~;
#X obj 508 284 outlet~;
#X obj 214 55 bng 15 250 50 0 \$0-load-sample empty load_smpl 17 7
0 10 -50867 -50867 -1;
#X text 31 148 x1;
#X text 31 163 x10;
#X text 31 177 x100;
#X obj 291 48 cnv 15 170 27 empty empty empty 8 6 0 18 -259675 -162280
0;
#X obj 295 55 tgl 15 0 \$0-shuff-sample \$0-shuff-set shuff_smpl 15
6 0 10 -50867 -1 -1 1 1;
#X obj 388 62 nbx 4 14 0 1e+006 0 0 \$0-shuffle_speed empty speed 40
6 0 10 -262144 -1 -1 317 256;
#X obj 388 48 nbx 4 14 1 8 0 0 \$0-shuffle_range empty range 40 6 0
10 -262144 -1 -1 6 256;
#N canvas 638 1512 450 369 sample_shuffle 1;
#X obj 64 165 f;
#X obj 94 165 + 1;
#X obj 76 285 s \$0-trav-radio;
#X obj 64 35 r \$0-shuff-sample;
#X obj 64 142 metro 2000;
#X obj 102 122 r \$0-shuffle_speed;
#X obj 252 81 r \$0-zample_number;
#X obj 252 170 s \$0-shuff-sample;
#X msg 252 101 0;
#X obj 262 150 s \$0-shuff-set;
#X msg 64 265 set \$1;
#X obj 64 191 % 2;
#X obj 119 174 r \$0-shuffle_range;
#X obj 64 60 t a b;
#X obj 192 26 r \$0-zample_number;
#X obj 144 84 r \$0-trav-radio;
#X msg 79 101 1;
#X msg 192 50 set \$1;
#X obj 78 220 + 0;
#X obj 76 241 % 8;
#X msg 212 307 2;
#X obj 55 313 s \$0-zample_number_shuff;
#X connect 0 0 1 0;
#X connect 0 0 11 0;
#X connect 1 0 0 1;
#X connect 3 0 13 0;
#X connect 4 0 0 0;
#X connect 5 0 4 1;
#X connect 6 0 8 0;
#X connect 6 0 20 0;
#X connect 8 0 9 0;
#X connect 8 0 7 0;
#X connect 10 0 2 0;
#X connect 11 0 18 0;
#X connect 12 0 11 1;
#X connect 13 0 4 0;
#X connect 13 1 16 0;
#X connect 14 0 17 0;
#X connect 15 0 16 0;
#X connect 16 0 0 1;
#X connect 16 0 18 1;
#X connect 17 0 16 0;
#X connect 18 0 19 0;
#X connect 19 0 10 0;
#X connect 19 0 21 0;
#X restore 520 247 pd sample_shuffle;
#X obj -109 20 r \$0-trav-radio;
#X obj 210 173 i;
#X obj 232 174 nbx 2 14 0 32 0 1 empty empty vox 60 7 0 10 -62784 -1
-1 1 256;
#X connect 11 0 49 0;
#X connect 17 0 19 0;
#X connect 18 0 37 0;
#X connect 18 1 38 0;
#X connect 23 0 24 0;
#X connect 23 1 24 1;
#X connect 25 0 24 2;
#X connect 48 0 34 0;
#X connect 49 0 50 0;
#X coords 0 -1 1 1 455 292 1 9 0;
