#N canvas 365 298 1082 659 10;
#X obj 566 327 r \$0-table;
#X obj 566 350 list;
#X obj 371 68 inlet;
#X obj 396 126 u_dispatch \$0 table;
#X obj 396 149 u_dispatch \$0 sr;
#X obj 396 172 u_dispatch \$0 chunk-size;
#X obj 375 288 r \$0-chunk-size;
#X obj 389 321 * 0.01;
#X obj 389 344 s \$0-chunk-size-sec;
#X obj 389 367 r \$0-sr;
#X obj 389 401 * 0.01;
#X obj 389 424 t b f;
#X obj 375 457 * 220.5;
#X obj 375 480 s \$0-chunk-size-samples;
#X obj 396 196 u_dispatch \$0 transposition;
#X obj 14 47 inlet~;
#X text 15 29 read-pt;
#N canvas 183 433 625 440 two-phases 0;
#X obj 87 132 pow;
#X obj 87 89 t b f;
#X msg 87 112 2;
#X obj 98 178 t b f;
#X obj 87 202 /;
#X obj 87 236 phasor~;
#X text 125 201 loop frequency;
#X obj 87 36 r \$0-transposition;
#X obj 88 327 outlet~;
#X obj 171 279 +~ 0.5;
#X obj 172 305 wrap~;
#X text 232 266 second phase signal;
#X text 232 286 out of phase from;
#X text 231 307 first one;
#X obj 172 327 outlet~;
#X obj 98 152 r \$0-chunk-size-sec;
#X obj 87 65 / 12;
#X connect 0 0 4 0;
#X connect 1 0 2 0;
#X connect 1 1 0 1;
#X connect 2 0 0 0;
#X connect 3 0 4 0;
#X connect 3 1 4 1;
#X connect 4 0 5 0;
#X connect 5 0 8 0;
#X connect 5 0 9 0;
#X connect 7 0 16 0;
#X connect 9 0 10 0;
#X connect 10 0 14 0;
#X connect 15 0 3 0;
#X connect 16 0 1 0;
#X restore 89 138 pd two-phases;
#X obj 15 258 hip~ 5;
#X obj 15 284 outlet~;
#N canvas 347 541 768 257 defaults 0;
#X obj 60 40 loadbang;
#X msg 60 67 0;
#X obj 60 92 s \$0-transposition;
#X obj 260 38 loadbang;
#X obj 260 90 s \$0-chunk-size;
#X msg 260 65 5;
#X connect 0 0 1 0;
#X connect 1 0 2 0;
#X connect 3 0 5 0;
#X connect 5 0 4 0;
#X restore 148 421 pd defaults;
#X obj 417 68 u_loader s_playolap-\$1 \$0;
#N canvas 228 198 627 317 LICENSE-BSD 0;
#X text 121 56 This software is copyrighted by Miller Puckette \, Reality
Jockey Ltd. and others. The terms (the "Standard Improved BSD License")
apply to all files associated with the software unless explicitly disclaimed
in individual files.;
#X text 123 148 See the file LICENSE.txt for the full license text.
;
#X restore 528 48 pd LICENSE-BSD;
#X obj 583 152 r RJLIB;
#X obj 583 173 route sf-samplerate;
#X obj 583 195 s \$0-sr;
#X text 579 131 Allow global setting of soundfile samplerate;
#X obj 396 218 u_dispatch \$0 read-position;
#X obj 747 288 r \$0-transposition;
#X obj 747 362 pack 0 10;
#X obj 747 345 * 44.1;
#X obj 747 384 vline~;
#X obj 747 480 s~ \$0-transposition-sig;
#X obj 27 110 r~ \$0-transposition-sig;
#X obj 396 240 u_dispatch \$0 table_number;
#X obj 566 437 r \$0-table_number;
#X obj 610 484 f \$0;
#X obj 566 506 pack f f;
#X obj 566 458 t f b;
#X msg 566 534 gettable \$1 \$2-table;
#X obj 566 579 outlet;
#X obj 195 258 hip~ 5;
#X obj 195 284 outlet~;
#N canvas 569 1402 854 788 playsamp-L 0;
#X obj 195 215 +~ 1;
#X obj 195 293 *~;
#X obj 195 244 +~;
#X obj 250 243 samphold~;
#X obj 195 143 samphold~;
#X obj 195 190 *~;
#X obj 360 228 -~ 0.5;
#X obj 360 252 *~ 0.5;
#X obj 360 275 cos~;
#X obj 249 68 inlet~;
#X obj 472 106 inlet~;
#X obj 196 332 outlet~;
#X obj 195 108 r \$0-chunk-size-samples;
#X text 253 47 read-pt;
#X text 471 75 phase;
#X obj 195 269 tabread4~;
#X obj 83 244 r \$0-set-table-L;
#X connect 0 0 2 0;
#X connect 1 0 11 0;
#X connect 2 0 15 0;
#X connect 3 0 2 1;
#X connect 4 0 5 0;
#X connect 5 0 0 0;
#X connect 6 0 7 0;
#X connect 7 0 8 0;
#X connect 8 0 1 1;
#X connect 9 0 3 0;
#X connect 10 0 4 1;
#X connect 10 0 5 1;
#X connect 10 0 6 0;
#X connect 10 0 3 1;
#X connect 12 0 4 0;
#X connect 15 0 1 0;
#X connect 16 0 15 0;
#X restore 15 213 pd playsamp-L;
#N canvas 0 0 854 788 playsamp-L2 0;
#X obj 195 215 +~ 1;
#X obj 195 293 *~;
#X obj 195 244 +~;
#X obj 250 243 samphold~;
#X obj 195 143 samphold~;
#X obj 195 190 *~;
#X obj 360 228 -~ 0.5;
#X obj 360 252 *~ 0.5;
#X obj 360 275 cos~;
#X obj 249 68 inlet~;
#X obj 472 106 inlet~;
#X obj 196 332 outlet~;
#X obj 195 108 r \$0-chunk-size-samples;
#X text 253 47 read-pt;
#X text 471 75 phase;
#X obj 195 269 tabread4~;
#X obj 83 244 r \$0-set-table-L;
#X connect 0 0 2 0;
#X connect 1 0 11 0;
#X connect 2 0 15 0;
#X connect 3 0 2 1;
#X connect 4 0 5 0;
#X connect 5 0 0 0;
#X connect 6 0 7 0;
#X connect 7 0 8 0;
#X connect 8 0 1 1;
#X connect 9 0 3 0;
#X connect 10 0 4 1;
#X connect 10 0 5 1;
#X connect 10 0 3 1;
#X connect 10 0 6 0;
#X connect 12 0 4 0;
#X connect 15 0 1 0;
#X connect 16 0 15 0;
#X restore 103 213 pd playsamp-L2;
#N canvas 0 0 854 788 playsamp-R 0;
#X obj 195 215 +~ 1;
#X obj 195 293 *~;
#X obj 195 244 +~;
#X obj 250 243 samphold~;
#X obj 195 143 samphold~;
#X obj 195 190 *~;
#X obj 360 228 -~ 0.5;
#X obj 360 252 *~ 0.5;
#X obj 360 275 cos~;
#X obj 249 68 inlet~;
#X obj 472 106 inlet~;
#X obj 196 332 outlet~;
#X obj 195 108 r \$0-chunk-size-samples;
#X text 253 47 read-pt;
#X text 471 75 phase;
#X obj 195 269 tabread4~;
#X obj 83 244 r \$0-set-table-R;
#X connect 0 0 2 0;
#X connect 1 0 11 0;
#X connect 2 0 15 0;
#X connect 3 0 2 1;
#X connect 4 0 5 0;
#X connect 5 0 0 0;
#X connect 6 0 7 0;
#X connect 7 0 8 0;
#X connect 8 0 1 1;
#X connect 9 0 3 0;
#X connect 10 0 4 1;
#X connect 10 0 5 1;
#X connect 10 0 3 1;
#X connect 10 0 6 0;
#X connect 12 0 4 0;
#X connect 15 0 1 0;
#X connect 16 0 15 0;
#X restore 195 213 pd playsamp-R;
#N canvas 0 0 854 788 playsamp-R2 0;
#X obj 195 215 +~ 1;
#X obj 195 293 *~;
#X obj 195 244 +~;
#X obj 250 243 samphold~;
#X obj 195 143 samphold~;
#X obj 195 190 *~;
#X obj 360 228 -~ 0.5;
#X obj 360 252 *~ 0.5;
#X obj 360 275 cos~;
#X obj 249 68 inlet~;
#X obj 472 106 inlet~;
#X obj 196 332 outlet~;
#X obj 195 108 r \$0-chunk-size-samples;
#X text 253 47 read-pt;
#X text 471 75 phase;
#X obj 195 269 tabread4~;
#X obj 83 244 r \$0-set-table-R;
#X connect 0 0 2 0;
#X connect 1 0 11 0;
#X connect 2 0 15 0;
#X connect 3 0 2 1;
#X connect 4 0 5 0;
#X connect 5 0 0 0;
#X connect 6 0 7 0;
#X connect 7 0 8 0;
#X connect 8 0 1 1;
#X connect 9 0 3 0;
#X connect 10 0 4 1;
#X connect 10 0 5 1;
#X connect 10 0 3 1;
#X connect 10 0 6 0;
#X connect 12 0 4 0;
#X connect 15 0 1 0;
#X connect 16 0 15 0;
#X restore 283 213 pd playsamp-R2;
#X msg 516 373 set \$1-1;
#X obj 516 396 s \$0-set-table-L;
#X msg 626 373 set \$1-2;
#X obj 626 396 s \$0-set-table-R;
#X obj 360 540 f \$0;
#X obj 333 514 t b b;
#X msg 318 562 getrandomtable \$1-table;
#X obj 691 542 list prepend table;
#X obj 691 562 list trim;
#X obj 907 362 pack 0 10;
#X obj 907 345 * 44.1;
#X obj 907 384 vline~;
#X obj 907 288 r \$0-read-position;
#X obj 907 480 s~ \$0-read-position-sig;
#X obj 24 80 r~ \$0-read-position-sig;
#X obj 333 95 route getrandomtable;
#X obj 15 131 zexy/nop~;
#X connect 0 0 1 0;
#X connect 0 0 54 0;
#X connect 1 0 47 0;
#X connect 1 0 49 0;
#X connect 2 0 62 0;
#X connect 3 0 4 0;
#X connect 4 0 5 0;
#X connect 5 0 14 0;
#X connect 6 0 7 0;
#X connect 6 0 12 0;
#X connect 7 0 8 0;
#X connect 9 0 10 0;
#X connect 10 0 11 0;
#X connect 11 0 12 0;
#X connect 11 1 12 1;
#X connect 12 0 13 0;
#X connect 14 0 27 0;
#X connect 15 0 63 0;
#X connect 17 0 43 1;
#X connect 17 0 45 1;
#X connect 17 1 44 1;
#X connect 17 1 46 1;
#X connect 18 0 19 0;
#X connect 23 0 24 0;
#X connect 24 0 25 0;
#X connect 27 0 34 0;
#X connect 28 0 30 0;
#X connect 29 0 31 0;
#X connect 30 0 29 0;
#X connect 31 0 32 0;
#X connect 33 0 63 0;
#X connect 35 0 38 0;
#X connect 36 0 37 1;
#X connect 37 0 39 0;
#X connect 38 0 37 0;
#X connect 38 1 36 0;
#X connect 39 0 40 0;
#X connect 41 0 42 0;
#X connect 43 0 18 0;
#X connect 44 0 18 0;
#X connect 45 0 41 0;
#X connect 46 0 41 0;
#X connect 47 0 48 0;
#X connect 49 0 50 0;
#X connect 51 0 53 0;
#X connect 52 1 51 0;
#X connect 53 0 40 0;
#X connect 54 0 55 0;
#X connect 55 0 40 0;
#X connect 56 0 58 0;
#X connect 57 0 56 0;
#X connect 58 0 60 0;
#X connect 59 0 57 0;
#X connect 61 0 63 0;
#X connect 62 0 52 0;
#X connect 62 1 3 0;
#X connect 63 0 44 0;
#X connect 63 0 43 0;
#X connect 63 0 46 0;
#X connect 63 0 45 0;
