#N canvas 592 98 615 661 10;
#X obj -57 21 tgl 15 0 empty empty empty 17 7 0 10 -262144 -1 -1 1
1;
#X floatatom 0 16 5 0 0 0 - - -;
#X obj -57 91 seq_bouncingball2ch_abs;
#X obj 20 169 output~;
#X floatatom 10 53 5 0 0 0 - - -;
#X obj -57 39 metro 2000;
#X obj 10 -31 loadbang;
#X msg 10 -9 3000;
#X text 41 17 <<set sequencing frequency;
#X text 51 55 <<set effect length;
#X text -115 18 STaRT >>;
#X obj -110 495 cnv 15 552 21 empty \$0-pddp.cnv.footer empty 20 12
0 14 -228856 -66577 0;
#X obj -111 -100 cnv 15 552 40 empty \$0-pddp.cnv.header seq_bouncingball2ch_abs~
3 12 0 18 -204280 -1 0;
#X obj -110 261 cnv 3 550 3 empty \$0-pddp.cnv.inlets inlets 8 12 0
13 -228856 -1 0;
#X obj -110 399 cnv 3 550 3 empty \$0-pddp.cnv.outlets outlets 8 12
0 13 -228856 -1 0;
#X obj -110 441 cnv 3 550 3 empty \$0-pddp.cnv.argument arguments 8
12 0 13 -228856 -1 0;
#X obj -110 468 cnv 3 550 3 empty \$0-pddp.cnv.more_info more_info
8 12 0 13 -228856 -1 0;
#X text -12 445 (none);
#X obj -32 270 cnv 17 3 70 empty \$0-pddp.cnv.let.0 0 5 9 0 16 -228856
-162280 0;
#X text -12 293 list;
#X obj -32 408 cnv 17 3 17 empty \$0-pddp.cnv.let.0 0 5 9 0 16 -228856
-162280 0;
#X obj -32 348 cnv 17 3 17 empty \$0-pddp.cnv.let.1 1 5 9 0 16 -228856
-162280 0;
#X text -12 347 float;
#X obj 345 -80 pddp/pddplink http://wiki.puredata.info/en/vline~ -text
pdpedia: vline~;
#X obj -32 371 cnv 17 3 17 empty \$0-pddp.cnv.let.2 2 5 9 0 16 -228856
-162280 0;
#X text -12 407 signal;
#X text 107 81 The [vline~] object \, like [line~] \, generates linear
ramps whose levels and timing are determined by messages you send it.
The messages consist of a target value \, a time interval (zero if
not supplied) \, and an initial delay (also zero if not supplied.)
Ramps may start and stop between audio samples \, in which case the
output is interpolated accordingly.;
#X text 107 177 Any number of future ramps may be scheduled and [vline~]
will remember them and execute them in order. They must be specified
in increasing order of initial delay however \, since a segment cancels
all planned segments at any future time.;
#X obj -106 497 pddp/pddplink all_about_help_patches.pd -text Usage
Guide;
#X obj 345 -49 pddp/dsp;
#X text -99 -76 stereo bouncing ball effect generator;
#X text 133 497 Related_objects;
#X text -12 269 bang;
#X text 58 269 - trigger effect;
#X text 57 347 - set the length of effect in ms.;
#X text 58 293 - TO BE DONE.;
#X obj 294 -97 seq_bouncingball2ch_abs;
#X text -12 370 signal;
#X text 57 370 - signal to make effect on - TO BE DONE.;
#X text 58 407 - the output is a hard panned stereo effect.;
#X connect 0 0 5 0;
#X connect 1 0 5 1;
#X connect 2 0 3 0;
#X connect 2 1 3 1;
#X connect 4 0 2 1;
#X connect 5 0 2 0;
#X connect 6 0 7 0;
#X connect 7 0 4 0;
#X connect 7 0 1 0;
