#N canvas 592 98 389 846 10;
#X obj 197 739 dac~;
#X obj 41 325 vline~;
#X obj 18 405 pow~;
#X obj 18 381 sig~ 2.71828;
#X obj 18 591 osc~;
#X obj 2 614 *~;
#X obj 2 359 *~;
#X obj 18 567 +~;
#X obj 41 238 metro 500;
#X obj 33 546 *~;
#X obj 41 281 f;
#X obj 96 656 *~;
#X obj 71 188 line;
#X obj 112 381 sig~;
#X obj 18 457 *~;
#X obj 41 165 t b a;
#X obj 99 214 * 300;
#X msg 41 303 1 2 0 \, 0 \$1 2;
#X obj 221 325 vline~;
#X obj 221 238 metro 500;
#X obj 221 281 f;
#X obj 251 188 line;
#X obj 221 165 t b a;
#X obj 237 260 * 500;
#X msg 221 303 1 2 0 \, 0 \$1 2;
#X obj 41 -24 t a b;
#X msg 41 -43 bang;
#X obj 156 5 f;
#X obj 186 5 + 1;
#X obj 147 111 spigot;
#X obj 156 25 % 2;
#X obj 186 25 expr $f1 * -1 + 1;
#X obj 41 111 spigot;
#X obj 228 405 pow~;
#X obj 228 381 sig~ 2.71828;
#X obj 228 591 osc~;
#X obj 228 479 +~ 80;
#X obj 212 614 *~;
#X obj 212 359 *~;
#X obj 228 567 +~;
#X obj 243 546 *~;
#X obj 243 501 osc~ 120;
#X obj 322 381 sig~;
#X obj 228 457 *~;
#X obj 244 432 *~ 130;
#X obj 306 656 *~;
#X obj 197 686 +~;
#X obj 131 -67 tgl 15 0 empty empty empty 17 7 0 10 -262144 -1 -1 0
1;
#X obj 151 -41 metro 500;
#X floatatom 151 -67 5 0 0 0 - - -;
#X obj 57 260 * 200;
#X obj 280 213 * 400;
#X floatatom 129 342 5 0 0 0 - - -;
#X obj 18 479 +~ 100;
#X obj 155 483 noise~;
#X obj 49 522 *~ 190;
#X obj 259 522 *~ 200;
#X obj 197 715 *~ 0.1;
#X obj 33 501 osc~ 120;
#X obj 34 432 *~ 160;
#X msg 41 3 1 \, 0 6000;
#X obj 41 -67 inlet;
#X connect 1 0 2 1;
#X connect 1 0 6 0;
#X connect 1 0 6 1;
#X connect 2 0 14 0;
#X connect 3 0 2 0;
#X connect 4 0 5 1;
#X connect 5 0 11 0;
#X connect 6 0 5 0;
#X connect 7 0 4 0;
#X connect 8 0 10 0;
#X connect 9 0 7 1;
#X connect 10 0 17 0;
#X connect 11 0 46 0;
#X connect 12 0 13 0;
#X connect 12 0 16 0;
#X connect 12 0 50 0;
#X connect 12 0 52 0;
#X connect 13 0 11 1;
#X connect 13 0 55 0;
#X connect 13 0 59 0;
#X connect 14 0 53 0;
#X connect 15 0 8 0;
#X connect 15 1 12 0;
#X connect 16 0 8 1;
#X connect 17 0 1 0;
#X connect 18 0 38 0;
#X connect 18 0 38 1;
#X connect 18 0 33 1;
#X connect 19 0 20 0;
#X connect 20 0 24 0;
#X connect 21 0 23 0;
#X connect 21 0 42 0;
#X connect 21 0 51 0;
#X connect 22 0 19 0;
#X connect 22 1 21 0;
#X connect 23 0 20 1;
#X connect 24 0 18 0;
#X connect 25 0 60 0;
#X connect 25 1 27 0;
#X connect 26 0 25 0;
#X connect 27 0 28 0;
#X connect 27 0 30 0;
#X connect 28 0 27 1;
#X connect 29 0 22 0;
#X connect 30 0 31 0;
#X connect 30 0 32 1;
#X connect 31 0 29 1;
#X connect 32 0 15 0;
#X connect 33 0 43 0;
#X connect 34 0 33 0;
#X connect 35 0 37 1;
#X connect 36 0 39 0;
#X connect 37 0 45 0;
#X connect 38 0 37 0;
#X connect 39 0 35 0;
#X connect 40 0 39 1;
#X connect 41 0 40 0;
#X connect 42 0 44 0;
#X connect 42 0 45 1;
#X connect 42 0 56 0;
#X connect 43 0 36 0;
#X connect 44 0 43 1;
#X connect 45 0 46 1;
#X connect 46 0 57 0;
#X connect 47 0 48 0;
#X connect 48 0 25 0;
#X connect 49 0 48 1;
#X connect 50 0 10 1;
#X connect 51 0 19 1;
#X connect 53 0 7 0;
#X connect 54 0 9 0;
#X connect 54 0 40 0;
#X connect 55 0 9 1;
#X connect 56 0 40 1;
#X connect 57 0 0 0;
#X connect 57 0 0 1;
#X connect 58 0 9 0;
#X connect 59 0 14 1;
#X connect 60 0 32 0;
#X connect 60 0 29 0;
#X connect 61 0 25 0;
