#N canvas 763 353 915 471 10;
#N canvas 133 342 542 539 channel 0;
#X obj 86 43 inlet~ signal;
#X obj 85 238 *~;
#X obj 136 124 dbtorms;
#X obj 136 184 sig~;
#X obj 136 203 lop~ 1;
#X obj 136 165 *;
#X obj 136 143 t b f;
#X obj 96 84 == 0;
#X obj 96 63 inlet mute;
#X obj 136 94 inlet level;
#X obj 279 326 inlet aux1;
#X obj 383 325 inlet aux2;
#X obj 24 469 outlet~;
#X obj 114 469 outlet~;
#X obj 262 468 outlet~;
#X obj 366 468 outlet~;
#X obj 383 346 f;
#X obj 279 348 f;
#X obj 365 446 *~;
#X obj 261 446 *~;
#X obj 26 23 inlet~ signal;
#X obj 25 218 *~;
#X obj 24 404 e_pan 0;
#X obj 84 404 e_pan 1;
#X obj 219 284 inlet Rpan;
#X obj 189 264 inlet Lpan;
#X connect 0 0 1 0;
#X connect 1 0 18 0;
#X connect 1 0 19 0;
#X connect 1 0 23 0;
#X connect 2 0 6 0;
#X connect 3 0 4 0;
#X connect 4 0 1 1;
#X connect 4 0 21 1;
#X connect 5 0 3 0;
#X connect 6 0 5 0;
#X connect 6 1 5 1;
#X connect 7 0 5 0;
#X connect 8 0 7 0;
#X connect 9 0 2 0;
#X connect 10 0 17 0;
#X connect 11 0 16 0;
#X connect 16 0 18 1;
#X connect 17 0 19 1;
#X connect 18 0 15 0;
#X connect 19 0 14 0;
#X connect 20 0 21 0;
#X connect 21 0 22 0;
#X connect 22 0 12 0;
#X connect 22 1 13 0;
#X connect 23 0 12 0;
#X connect 23 1 13 0;
#X connect 24 0 23 1;
#X connect 25 0 22 1;
#X restore 144 153 pd channel strip;
#X text 200 363 left;
#X text 245 339 right;
#X text 280 296 aux1;
#X text 309 268 aux2;
#X obj 144 14 inlet~;
#X obj 165 34 r \$0-mute;
#X obj 231 112 r \$0-aux1;
#X obj 253 128 r \$0-aux2;
#X obj 143 364 outlet~;
#X obj 179 340 outlet~;
#X obj 217 297 outlet~;
#X obj 253 269 outlet~;
#X obj 476 28 inlet;
#X obj 476 56 list trim;
#X obj 476 84 route save;
#X obj 476 142 outlet;
#N canvas 0 0 450 300 throw1 0;
#X obj 75 44 inlet~;
#X obj 158 82 catch~ \$0-dummy-aux1;
#X obj 75 195 throw~ \$0-dummy-aux1;
#X obj 112 109 r \$0-aux1name;
#X msg 112 163 set \$1;
#X obj 112 135 list;
#X connect 0 0 2 0;
#X connect 3 0 5 0;
#X connect 4 0 2 0;
#X connect 5 0 4 0;
#X restore 268 224 pd throw1;
#N canvas 0 0 450 300 throw2 0;
#X obj 75 44 inlet~;
#X msg 112 163 set \$1;
#X obj 112 135 list;
#X obj 158 82 catch~ \$0-dummy-aux2;
#X obj 75 195 throw~ \$0-dummy-aux2;
#X obj 112 109 r \$0-aux2name;
#X connect 0 0 4 0;
#X connect 1 0 4 0;
#X connect 2 0 1 0;
#X connect 5 0 2 0;
#X restore 268 195 pd throw2;
#X text 343 194 aux throws are renamable;
#N canvas 172 83 586 377 LICENSE-GPL 0;
#X text 57 88 This program is free software: you can redistribute it
and/or modify it under the terms of the GNU General Public License
as published by the Free Software Foundation \, either version 3 of
the License \, or (at your option) any later version.;
#X text 58 168 This program is distributed in the hope that it will
be useful \, but WITHOUT ANY WARRANTY \; without even the implied warranty
of MERCHANTABILITY or FITNESS FOR A PARTICULAR PURPOSE. See the GNU
General Public License for more details.;
#X text 57 261 You should have received a copy of the GNU General Public
License along with this program. If not \, see <http://www.gnu.org/licenses/>.
;
#X text 61 54 Copyright (C) 2009 \, Reality Jockey Ltd.;
#X text 60 325 See the file LICENSE.txt for the full license text.
;
#X restore 592 49 pd LICENSE-GPL;
#X obj 476 114 u_loader u_channelstrip_st_tm-\$1 \$0;
#X obj 533 172 u_dispatch \$0 mute;
#X obj 533 200 u_dispatch \$0 level;
#X obj 533 313 u_dispatch \$0 aux1;
#X obj 533 341 u_dispatch \$0 aux2;
#X obj 533 368 u_dispatch \$0 aux1name;
#X obj 533 396 u_dispatch \$0 aux2name;
#X obj 533 258 u_dispatch \$0 Lpan;
#X obj 533 288 u_dispatch \$0 Rpan;
#X obj 209 74 r \$0-Lpan;
#X obj 219 94 r \$0-Rpan;
#X obj 94 14 inlet~;
#X obj 533 230 u_dispatch \$0 level_mod;
#X obj 759 196 r \$0-level;
#X obj 748 289 m_scale 0 110 0 110;
#X obj 748 324 s \$0-level_mod_maxed;
#X obj 748 174 r \$0-level_mod;
#X obj 759 218 t b f;
#X obj 731 246 f 110;
#X obj 187 54 r \$0-level;
#X connect 0 0 9 0;
#X connect 0 1 10 0;
#X connect 0 2 11 0;
#X connect 0 2 17 0;
#X connect 0 3 12 0;
#X connect 0 3 18 0;
#X connect 5 0 0 1;
#X connect 6 0 0 2;
#X connect 7 0 0 6;
#X connect 8 0 0 7;
#X connect 13 0 14 0;
#X connect 14 0 15 0;
#X connect 15 0 21 0;
#X connect 15 1 22 0;
#X connect 21 0 16 0;
#X connect 22 0 23 0;
#X connect 23 0 33 0;
#X connect 24 0 25 0;
#X connect 25 0 26 0;
#X connect 26 0 27 0;
#X connect 28 0 29 0;
#X connect 29 0 24 0;
#X connect 30 0 0 4;
#X connect 31 0 0 5;
#X connect 32 0 0 0;
#X connect 33 0 28 0;
#X connect 34 0 38 0;
#X connect 35 0 36 0;
#X connect 37 0 39 0;
#X connect 38 0 39 0;
#X connect 38 1 35 4;
#X connect 39 0 35 0;
#X connect 40 0 0 3;
