#N canvas 46 165 1297 508 10;
#X obj 252 122 metro 1000;
#X obj 274 105 tgl 15 0 empty sequencer sl|on -30 7 0 10 -262144 -1
-1 0 1;
#X floatatom 292 104 5 0 0 1 bpm - -;
#X obj 319 73 expr 30000/$f1;
#X obj 375 220 t b b b;
#X obj 394 269 counter 7;
#X obj 102 123 hradio 15 1 0 16 empty empty empty 0 -8 0 10 -262144
-1 -1 4;
#X obj 277 5 inlet;
#X obj 237 7 inlet;
#X floatatom 345 104 5 0 0 1 del - -;
#X obj 375 179 spigot;
#X obj 290 219 == 0;
#X obj 455 179 spigot;
#X floatatom 345 122 5 0 0 1 - - -;
#X floatatom 380 122 5 0 0 1 - - -;
#X floatatom 426 104 5 0 0 1 - - -;
#X floatatom 426 122 5 0 0 1 - - -;
#X obj 565 311 sel 0;
#X msg 533 45 set;
#X msg 533 65 set;
#X obj 362 20 loadbang;
#X msg 362 40 0;
#X obj 415 328 s counter16-\$1;
#X obj 394 351 s counter8-\$1;
#X obj 374 376 s counter4-\$1;
#X obj 565 376 s beat-\$1;
#X obj 409 65 r bar-\$1;
#X obj 462 65 r beat-\$1;
#X obj 552 237 s metro-\$1;
#X obj 25 229 spigot;
#X obj 105 229 spigot;
#X obj 290 239 s \$0-slv;
#X obj 310 259 s \$0-mst;
#X obj 105 178 r counter16-\$1;
#X obj 25 158 r counter16-mst;
#X obj 25 270 t f b b;
#X text 26 353 all instances of metrons need a \$1 argument;
#X text 26 373 the MASTER metron MSUT have a \$1 arg 'mst';
#X obj 414 246 counter 0 0 15;
#X floatatom 416 179 1 0 0 0 - - -;
#X floatatom 496 179 1 0 0 0 - - -;
#X obj 375 141 r metro-mst;
#X obj 252 186 s metro-\$1;
#X obj 459 223 r reset-metron;
#X obj 225 104 bng 15 250 50 0 empty empty res -18 7 0 10 -262144 -1
-1;
#X obj 199 143 s reset-metron;
#X obj 602 311 r reset-metron;
#X obj 725 311 sel 0;
#X obj 762 311 r reset-metron;
#X obj 725 376 s bar-\$1;
#X floatatom 411 412 5 0 0 0 - - -;
#X floatatom 391 432 5 0 0 0 - - -;
#X floatatom 374 452 5 0 0 0 - - -;
#X obj 725 355 counter 16;
#X obj 375 294 counter 3;
#X obj 565 355 counter 3;
#X obj 118 212 r \$0-slv;
#X obj 35 212 r \$0-mst;
#X floatatom 149 229 1 0 0 0 - - -;
#X floatatom 69 229 1 0 0 0 - - -;
#X obj 385 162 r \$0-mst;
#X obj 468 162 r \$0-slv;
#X obj 455 203 pipe 0;
#X floatatom 611 89 5 0 0 0 - - -;
#X obj 611 108 s metron-time-inter-\$1;
#X msg 392 40 120;
#X floatatom 344 470 5 0 0 0 - - -;
#X obj 345 314 counter 1;
#X obj 344 396 s counter2-\$1;
#X obj 869 9 inlet;
#X obj 869 125 outlet;
#X obj 869 36 route save;
#N canvas 356 1106 711 203 dispatchers 0;
#X obj 83 18 inlet;
#X obj 83 46 u_dispatch \$0 signature-1-\$1;
#X obj 83 64 u_dispatch \$0 signature-2-\$1;
#X obj 83 81 u_dispatch \$0 bpm-\$1;
#X obj 83 98 u_dispatch \$0 del-\$1;
#X connect 0 0 1 0;
#X connect 1 0 2 0;
#X connect 2 0 3 0;
#X connect 3 0 4 0;
#X restore 936 62 pd dispatchers;
#X obj 869 86 u_loader u_metron-\$1 \$0;
#X obj 475 123 s signature-2-\$1;
#X obj 475 103 s signature-1-\$1;
#X msg 442 25 set;
#X msg 322 25 set;
#X obj 474 -7 r \$0-del-\$1;
#X obj 354 -7 r \$0-bpm-\$1;
#X obj 290 143 s \$0-bpm-\$1;
#X obj 301 163 s \$0-del-\$1;
#X obj 565 13 r \$0-signature-1-\$1;
#X obj 565 33 r \$0-signature-2-\$1;
#X obj 582 331 r \$0-signature-1-\$1;
#X obj 742 331 r \$0-signature-1-\$1;
#X connect 0 0 42 0;
#X connect 1 0 0 0;
#X connect 1 0 11 0;
#X connect 1 0 32 0;
#X connect 2 0 80 0;
#X connect 3 0 0 1;
#X connect 3 0 63 0;
#X connect 4 0 54 0;
#X connect 4 0 67 0;
#X connect 4 1 5 0;
#X connect 4 2 38 0;
#X connect 5 0 23 0;
#X connect 5 0 51 0;
#X connect 7 0 2 0;
#X connect 8 0 1 0;
#X connect 9 0 62 1;
#X connect 9 0 81 0;
#X connect 10 0 4 0;
#X connect 11 0 31 0;
#X connect 12 0 62 0;
#X connect 15 0 75 0;
#X connect 16 0 74 0;
#X connect 17 0 55 0;
#X connect 18 0 15 0;
#X connect 19 0 16 0;
#X connect 20 0 21 0;
#X connect 20 0 65 0;
#X connect 21 0 1 0;
#X connect 26 0 13 0;
#X connect 27 0 14 0;
#X connect 29 0 35 0;
#X connect 30 0 35 0;
#X connect 33 0 30 0;
#X connect 34 0 29 0;
#X connect 35 0 6 0;
#X connect 38 0 22 0;
#X connect 38 0 50 0;
#X connect 41 0 10 0;
#X connect 41 0 12 0;
#X connect 43 0 38 2;
#X connect 43 0 5 2;
#X connect 43 0 54 2;
#X connect 44 0 45 0;
#X connect 46 0 55 2;
#X connect 47 0 53 0;
#X connect 48 0 53 2;
#X connect 53 0 49 0;
#X connect 54 0 24 0;
#X connect 54 0 52 0;
#X connect 54 0 17 0;
#X connect 55 0 25 0;
#X connect 55 0 47 0;
#X connect 56 0 30 1;
#X connect 56 0 58 0;
#X connect 57 0 29 1;
#X connect 57 0 59 0;
#X connect 60 0 10 1;
#X connect 60 0 39 0;
#X connect 61 0 12 1;
#X connect 61 0 40 0;
#X connect 62 0 4 0;
#X connect 63 0 64 0;
#X connect 65 0 2 0;
#X connect 67 0 66 0;
#X connect 67 0 68 0;
#X connect 69 0 71 0;
#X connect 71 0 73 0;
#X connect 71 1 72 0;
#X connect 73 0 70 0;
#X connect 76 0 9 0;
#X connect 77 0 2 0;
#X connect 78 0 76 0;
#X connect 79 0 77 0;
#X connect 79 0 3 0;
#X connect 82 0 18 0;
#X connect 83 0 19 0;
#X connect 84 0 55 4;
#X connect 85 0 53 4;
#X coords 0 -1 1 1 360 40 1 100 100;
