#N struct 1249-symarray float x array symbols 1249-sym;
#N struct 1249-sym symbol name float on;
#N struct 1257-symarray float x array symbols 1257-sym;
#N struct 1257-sym symbol name float on;
#N struct 1261-symarray float x array symbols 1261-sym;
#N struct 1261-sym symbol name float on;
#N struct 1262-symarray float x array symbols 1262-sym;
#N struct 1262-sym symbol name float on;
#N canvas 78 58 1486 929 10;
#X declare path ./;
#X msg 624 263 print;
#X msg 634 283 dump;
#X floatatom 664 363 5 0 0 1 Lookup - -;
#X symbolatom 504 627 20 0 0 0 - - -;
#X msg 644 322 size \$1;
#X floatatom 644 303 5 0 0 0 - - -;
#N canvas 678 215 582 570 REFERENCE 0;
#X text 24 526 Tags: Audio \, Playback;
#X text 24 85 Argument 0: <symbol> - Optional prefix to the table names.
Otherwise reverts to '\$0'.;
#X text 24 486 See also: [u_samplekit] [u_multisamplebank2] [m_symbolarray]
[s_playtable2];
#X text 24 118 Inlet 0: Various control messages - see Example.;
#X text 24 55 Summary: Load stereo samples from multiple dir locations
;
#X text 24 336 Description: Loads stereo samples (a "kit") into numbered
tables. The lookup by number will report the base name of the two tables
of a stereo file. The samplekit must have a text file mapping sample
names(with full access path C:/.../...wav) to numbers (with the pairs
being separated by a /n carrige returns). The default name of this
file is "index.txt" \, but you can overwrite the name inside the "open"
message (as a second list element). After a kit was loaded you can
look up the actual table names by sending a number to the [u_samplekit2]'s
first inlet. It will then send out the matching table name to its first
outlet. The full names are generated by appending "-1" for the left
and "-2" for the right channel.;
#X text 24 35 Name: [u_multiloc_samplekit2];
#X text 24 185 Outlet 1: Returns the array size (this is the total
length including the empty slots);
#X text 24 249 Outlet 3: Upon recieving a 'float' to Inlet 0 \, this
outlet will return a symbol of '<sample-file-name>' currently mapped
at '<index>' (determined by input 'float').;
#X text 24 287 Outlet 4: Upon recieving a 'dump' message to Inlet 0
\, this outlet will dump the current mapping as lists of '<index> <sample-file-name>'.
;
#X text 24 211 Outlet 2: Upon recieving a 'dump' message to Inlet 0
\, this outlet will dump the current mappings as lists of '<index>
<table(prefix-index)>'.;
#X text 24 149 Outlet 0: Upon recieving a 'float' to Inlet 0 \, this
outlet will return a symbol of '<table-name>' currently mapped at '<index>'
(determined by input 'float').;
#X coords 0 -1 1 1 450 540 1 10 10;
#X restore 11 33 pd REFERENCE;
#X obj 11 11 cnv 15 450 20 empty empty empty 20 12 0 14 -261234 -66577
0;
#X text 150 572 RjDj Library (https://github.com/rjdj/rjlib) - 2011
;
#X text 671 283 Dump the current mapping to the second outlet.;
#X text 667 264 Print the current mapping.;
#X text 698 314 Size <index>: report size of table at <index> in samples
to 2nd outlet.;
#X obj 11 575 declare path ./;
#X obj 504 432 u_multiloc_samplekit2;
#X msg 565 542 22 1003-filename-22;
#X obj 565 521 u_show;
#X msg 696 543 dump;
#X msg 706 592 numdump;
#X obj 697 709 bng 15 250 50 0 empty empty done 17 7 1 10 -262144 -1
-1;
#X obj 668 741 u_cocollect;
#X msg 668 766 C:/Users/drot/Documents/CREATION/RECENT/Projects/Pure_Data_Wave/Recordings/flying_objects_UIPockets_02.wav.wav
1 \, C:/Users/drot/Documents/CREATION/RECENT/Projects/Pure_Data_Wave/Recordings/drawer01_02_twist_02.wav
2 \, C:/Users/drot/Documents/CREATION/RECENT/Projects/Pure_Data_Wave/pd/Scenes/flying_objects_drift_PROJECT/sounds/PPSounds_Notification_03.wav
10 \, C:/Users/drot/Documents/CREATION/RECENT/Projects/Pure_Data_Wave/pd/Scenes/flying_objects_drift_PROJECT/sounds/PPSounds_Opponent_Searching_03.wav
11 \, C:/Users/drot/Documents/CREATION/RECENT/Projects/Pure_Data_Wave/pd/Scenes/flying_objects_drift_PROJECT/sounds/PPSounds_GameWin_03.wav
12 \, C:/...././notfound.wav 20 \, C:/...././otherfile 22 \,;
#X msg 723 724 clear;
#X msg 716 612 clear;
#X obj 668 692 u_dumpfile;
#X text 155 14 - load stereo samples from multiple dir locations;
#X msg 677 405 reset;
#X obj 609 162 list append 0;
#X obj 684 126 hradio 15 1 0 8 empty empty empty 0 -8 0 10 -262144
-1 -1 6;
#X obj 609 142 openpanel;
#X msg 609 81 bang;
#X obj 609 220 list prepend open;
#X obj 609 239 list trim;
#X msg 672 385 delete 2;
#X text 734 384 Delete current mapping at the second index;
#X text 724 404 reset all current mapping;
#X obj 696 647 t a b;
#X msg 503 303 dump;
#X msg 543 336 bang;
#X obj 504 281 t b a b;
#X text 150 592 as extended by Tamas Marquetant - 2016;
#X text 885 23 'openmapfile' message loads and opens a map file from
/*PATH*/ named <sample-file-name> or "index.txt" if 3rd element not
specified.;
#X text 885 58 absolute /*PATH*/ must be given \, relative path won't
work;
#X obj 684 143 nbx 5 14 -1e+037 1e+037 0 0 empty empty empty 0 -8 0
10 -262144 -1 -1 6 256;
#X text 818 119 add new sample files to the internal table-array by
using the 'openfile' dialogue and providing an '<index>' as a second
element of the message or...;
#X text 926 195 by providing a list of messages containing /*PATH*/<sample-file-name>
and '<index>' pairs separated by columns prepended by 'open' control
message. Already existing '<index>' will be overwritten.;
#X msg 596 480 C:/Users/drot/Documents/CREATION/RECENT/Projects/Pure_Data_Wave/pd/Scenes/flying_objects_drift_PROJECT/sounds/PPSounds_Notification_03.wav
;
#X obj 596 459 u_show;
#X floatatom 534 602 5 0 0 0 - - -;
#X text 720 337 Size <index>: report size of table at <index> in samples
to 2nd outlet.;
#X msg 654 342 arraysize;
#X obj 513 105 bng 30 250 50 0 \$0-reset-db empty <<RESET>> -35 -10
0 20 -262144 -1 -1;
#X obj 1013 388 r \$0-reset-db;
#X obj 793 595 r \$0-reset-writer;
#X obj 793 707 r \$0-reset-writer;
#X obj 543 360 s \$0-reset-writer;
#X msg 622 200 C:/...././notfound.wav 20 \, C:/...././otherfile 22
;
#X text 22 628 *** USE *****;
#X text 33 648 use the 'u_multiloc_samplekit2' object by passing its
array data (contained in 'm_symbolarray_tm sample-file-names'' struct
data within) via the 5th outlet to a connected 'u_dumpfile' object
(control message: 'add \$1 \$2'). Save current sample table mapping
setup to a *.txt mapping file (may be the same from where you originally
read information from) sending the 'u_dumpfile' a 'write /*PATH*/<mapping-file-name'
control message with a -cr flag.;
#X obj 14 13 u_multiloc_samplekit2;
#X msg 627 639 add \$2 \$1;
#X obj 1045 415 r \$0-mess;
#X obj 553 563 s \$0-table-names-dump;
#N canvas 916 1314 450 300 other-usage 0;
#X symbolatom 257 224 30 0 0 0 - - -;
#X obj 257 201 symbol;
#X obj 98 113 unpack f s;
#X obj 257 178 route 11;
#X obj 48 45 t b a b;
#X obj 98 133 list prepend;
#X obj 177 133 t a;
#X obj 66 158 list;
#X obj 67 65 s \$0-mess;
#X obj 257 85 r \$0-table-names-dump;
#X symbolatom 66 224 30 0 0 0 - - -;
#X obj 66 201 symbol;
#N canvas 884 1545 450 300 get-random-table-name 0;
#X obj 179 58 cyclone/zl len;
#X floatatom 179 79 5 0 0 0 - - -;
#X obj 179 129 random;
#X obj 179 99 t b f;
#X floatatom 179 175 5 0 0 0 - - -;
#X obj 96 197 cyclone/zl nth 3;
#X obj 96 38 t l b l;
#X obj 179 152 + 1;
#X obj 96 8 inlet list;
#X obj 96 228 outlet table-name;
#X connect 0 0 1 0;
#X connect 1 0 3 0;
#X connect 2 0 7 0;
#X connect 3 0 2 0;
#X connect 3 1 2 1;
#X connect 4 0 5 1;
#X connect 5 0 9 0;
#X connect 6 0 5 0;
#X connect 6 2 0 0;
#X connect 7 0 4 0;
#X connect 8 0 6 0;
#X restore 66 178 pd get-random-table-name;
#X text 222 68 get name of exact table if loaded;
#X text 62 88 get random loaded table name;
#X obj 48 25 inlet;
#X obj 52 253 outlet;
#X obj 242 253 outlet;
#X connect 1 0 0 0;
#X connect 1 0 17 0;
#X connect 2 1 5 0;
#X connect 3 0 1 0;
#X connect 4 0 7 0;
#X connect 4 1 8 0;
#X connect 4 2 5 1;
#X connect 4 2 7 1;
#X connect 5 0 6 0;
#X connect 5 0 7 1;
#X connect 6 0 5 1;
#X connect 7 0 12 0;
#X connect 9 0 3 0;
#X connect 9 0 2 0;
#X connect 11 0 10 0;
#X connect 11 0 16 0;
#X connect 12 0 11 0;
#X connect 15 0 4 0;
#X restore 15 770 pd other-usage;
#X msg 5 748 dump;
#X symbolatom 96 794 30 0 0 0 - - -;
#X symbolatom 15 814 30 0 0 0 - - -;
#X msg 793 636 write C:/Users/drot/Documents/CREATION/RECENT/Projects/Pure_Data_Wave/pd/Scenes/flying_objects_drift_PROJECT/sample_map_file.txt
;
#X msg 504 18 openmapfile C:/Users/drot/Documents/CREATION/RECENT/Projects/Pure_Data_Wave/pd/Scenes/flying_objects_drift_PROJECT
sample_map_file.txt;
#X obj 609 100 u_load_sound_samples;
#X obj 696 570 t a b;
#X connect 0 0 13 0;
#X connect 1 0 13 0;
#X connect 2 0 13 0;
#X connect 4 0 13 0;
#X connect 5 0 4 0;
#X connect 13 0 3 0;
#X connect 13 1 47 0;
#X connect 13 2 15 0;
#X connect 13 2 61 0;
#X connect 13 3 46 0;
#X connect 13 4 59 0;
#X connect 15 0 14 0;
#X connect 16 0 69 0;
#X connect 17 0 23 0;
#X connect 19 0 20 0;
#X connect 21 0 19 1;
#X connect 22 0 23 0;
#X connect 23 0 19 0;
#X connect 23 1 18 0;
#X connect 25 0 13 0;
#X connect 26 0 30 0;
#X connect 27 0 42 0;
#X connect 28 0 26 0;
#X connect 29 0 68 0;
#X connect 30 0 31 0;
#X connect 31 0 38 0;
#X connect 32 0 13 0;
#X connect 35 0 23 0;
#X connect 35 1 21 0;
#X connect 36 0 13 0;
#X connect 37 0 54 0;
#X connect 38 0 36 0;
#X connect 38 1 13 0;
#X connect 38 2 37 0;
#X connect 42 0 26 1;
#X connect 46 0 45 0;
#X connect 49 0 13 0;
#X connect 51 0 25 0;
#X connect 52 0 22 0;
#X connect 53 0 21 0;
#X connect 55 0 30 0;
#X connect 59 0 23 0;
#X connect 60 0 13 0;
#X connect 62 0 65 0;
#X connect 62 1 64 0;
#X connect 63 0 62 0;
#X connect 66 0 23 0;
#X connect 67 0 38 0;
#X connect 68 0 28 0;
#X connect 69 0 23 0;
#X connect 69 1 21 0;
