#N struct 1013-symarray float x array symbols 1013-sym;
#N struct 1013-sym symbol name float on;
#N struct 1014-symarray float x array symbols 1014-sym;
#N struct 1014-sym symbol name float on;
#N canvas 850 421 1073 465 10;
#X obj 201 224 u_dumpfile;
#X text 68 263 prepend directory;
#X obj 201 54 inlet;
#X msg 439 173 reset;
#X obj 201 137 t a a b;
#X msg 489 173 print;
#X obj 298 386 outlet;
#X obj 201 386 outlet;
#N canvas 66 365 450 300 pad 0;
#X obj 113 25 inlet;
#X obj 113 246 outlet;
#X obj 113 79 t a a;
#X obj 187 104 list length;
#X obj 187 132 < 2;
#X obj 187 152 select 0 1;
#X obj 113 205 list append;
#X msg 164 44 one;
#X msg 167 24 one two;
#X msg 206 42 1 2 3;
#X text 204 209 append "index.txt" if too short;
#X msg 140 178 sample_text_file.txt;
#X connect 0 0 2 0;
#X connect 2 0 6 0;
#X connect 2 1 3 0;
#X connect 3 0 4 0;
#X connect 4 0 5 0;
#X connect 5 0 11 0;
#X connect 5 1 6 1;
#X connect 6 0 1 0;
#X connect 7 0 2 0;
#X connect 8 0 2 0;
#X connect 9 0 2 0;
#X connect 11 0 6 1;
#X restore 201 115 pd pad;
#X msg 546 170 dump;
#N canvas 172 83 586 377 LICENSE-GPL 0;
#X text 57 88 This program is free software: you can redistribute it
and/or modify it under the terms of the GNU General Public License
as published by the Free Software Foundation \, either version 3 of
the License \, or (at your option) any later version.;
#X text 58 168 This program is distributed in the hope that it will
be useful \, but WITHOUT ANY WARRANTY \; without even the implied warranty
of MERCHANTABILITY or FITNESS FOR A PARTICULAR PURPOSE. See the GNU
General Public License for more details.;
#X text 57 261 You should have received a copy of the GNU General Public
License along with this program. If not \, see <http://www.gnu.org/licenses/>.
;
#X text 61 54 Copyright (C) 2009 \, Reality Jockey Ltd.;
#X text 60 325 See the file LICENSE.txt for the full license text.
;
#X restore 703 78 pd LICENSE-GPL;
#X msg 594 191 size \$1;
#X obj 594 171 f;
#X msg 759 172 delete \$1;
#X obj 667 171 prepend open;
#X msg 392 173 clear;
#X obj 201 356 u_multisamplebank2_tm \$0-filename;
#X obj 437 386 outlet;
#X obj 363 386 outlet;
#X msg 899 172 arraysize;
#X obj 249 386 outlet;
#X obj 201 82 route openmapfile float print dump size open delete reset
arraysize openmap;
#X msg 971 172 read \$1 \, dump;
#X obj 968 149 list;
#X msg 201 202 read \$1 \, dump;
#X msg 201 296 open \$1 \$2;
#X obj 201 261 list;
#X connect 0 0 26 0;
#X connect 2 0 21 0;
#X connect 3 0 16 0;
#X connect 4 0 24 0;
#X connect 4 2 3 0;
#X connect 5 0 16 1;
#X connect 8 0 4 0;
#X connect 9 0 16 1;
#X connect 11 0 16 0;
#X connect 12 0 11 0;
#X connect 13 0 16 0;
#X connect 14 0 16 0;
#X connect 15 0 0 0;
#X connect 16 0 7 0;
#X connect 16 1 20 0;
#X connect 16 2 6 0;
#X connect 16 3 18 0;
#X connect 16 4 17 0;
#X connect 19 0 16 0;
#X connect 21 0 8 0;
#X connect 21 1 16 1;
#X connect 21 2 5 0;
#X connect 21 3 9 0;
#X connect 21 4 12 0;
#X connect 21 5 14 0;
#X connect 21 6 13 0;
#X connect 21 7 3 0;
#X connect 21 7 15 0;
#X connect 21 8 19 0;
#X connect 21 9 23 0;
#X connect 22 0 0 0;
#X connect 23 0 22 0;
#X connect 24 0 0 0;
#X connect 25 0 16 0;
#X connect 26 0 25 0;
