#N canvas 135 64 602 550 10;
#X obj -23 375 writesf~ 2;
#X msg -69 314 start;
#X msg 56 303 stop;
#X floatatom 213 43 5 0 0 0 - - -, f 5;
#X obj 113 210 sel 0 1;
#X obj 92 95 tgl 60 0 empty empty rec 17 -10 0 14 -205256 -1 -1 0 1
;
#X obj 92 52 clock;
#X obj 106 -30 t f f;
#X msg 134 30 0;
#X obj 136 -10 sel 1;
#X obj 214 75 vu 15 80 empty empty -1 -8 0 10 -66577 -1 1 0;
#X obj 169 73 vu 15 80 empty empty -1 -8 0 10 -66577 -1 1 0;
#X floatatom 168 42 5 0 0 0 - - -, f 5;
#N canvas 291 102 450 300 softclipper 0;
#X obj 149 17 *~;
#X obj 183 17 *~;
#X obj 217 17 *~;
#X obj 251 17 *~;
#X obj 140 -38 inlet~;
#X obj 187 -38 inlet~;
#X obj 218 47 e_softclip;
#X obj 250 76 e_softclip;
#X obj 148 131 outlet~;
#X obj 211 131 outlet~;
#X obj 275 -29 line~;
#X msg 273 -64 1 \, 0 5;
#X msg 287 -85 0 \, 1 5;
#X obj 339 -28 line~;
#X msg 337 -63 1 \, 0 5;
#X msg 352 -84 0 \, 1 5;
#X obj 307 -117 sel 0 1;
#X msg 309 -139 0;
#X obj 308 -171 loadbang;
#X obj 248 -165 inlet;
#X floatatom 344 48 5 0 0 0 - - -, f 5;
#X obj 344 26 env~;
#X floatatom 304 43 5 0 0 0 - - -, f 5;
#X obj 304 21 env~;
#X obj 371 -152 tgl 15 0 empty empty empty 17 7 0 10 -262144 -1 -1
0 1;
#X connect 0 0 8 0;
#X connect 1 0 9 0;
#X connect 2 0 6 0;
#X connect 3 0 7 0;
#X connect 4 0 0 0;
#X connect 4 0 2 0;
#X connect 5 0 1 0;
#X connect 5 0 3 0;
#X connect 6 0 8 0;
#X connect 7 0 9 0;
#X connect 10 0 0 1;
#X connect 10 0 1 1;
#X connect 10 0 23 0;
#X connect 11 0 10 0;
#X connect 12 0 10 0;
#X connect 13 0 2 1;
#X connect 13 0 3 1;
#X connect 13 0 21 0;
#X connect 14 0 13 0;
#X connect 15 0 13 0;
#X connect 16 0 14 0;
#X connect 16 0 12 0;
#X connect 16 1 11 0;
#X connect 16 1 15 0;
#X connect 17 0 16 0;
#X connect 18 0 17 0;
#X connect 19 0 24 0;
#X connect 21 0 20 0;
#X connect 23 0 22 0;
#X connect 24 0 16 0;
#X restore -29 -56 pd softclipper;
#X obj 174 4 tgl 15 0 empty empty softclip 17 7 0 10 -262144 -1 -1
0 1;
#X obj 22 217 savepanel;
#X msg -7 244 \$1.wav;
#X obj 86 184 sel 1;
#X msg 119 -76 1;
#X msg 98 -76 0;
#X obj 174 21 tgl 15 0 \$1-MUTE empty MUTE 17 7 0 10 -260097 -1 -1
0 1;
#X obj 20 -80 spigot~;
#X obj 68 -105 r \$1-MUTE;
#X obj -30 -80 spigot~;
#X obj -30 -106 inlet~;
#X obj 20 -106 inlet~;
#X obj 3 269 list prepend open;
#X msg 124 348 set \$1 \$2;
#X msg 73 372 open C:/Users/drot/Documents/CREATION/RECENT/Projects/Pure_Data_Wave/Recordings/flying_objects_UIPockets_01.wav.wav
;
#X obj 1 297 t b b a;
#X obj 85 426 unpack s s;
#X symbolatom 92 161 29 0 0 0 - - -, f 29;
#X obj 321 201 u_load_sound_samples;
#X obj 255 -40 iemlib/pvu~;
#X obj 170 -41 iemlib/pvu~;
#X connect 1 0 0 0;
#X connect 1 0 18 0;
#X connect 2 0 0 0;
#X connect 2 0 19 0;
#X connect 3 0 10 0;
#X connect 4 0 2 0;
#X connect 5 0 17 0;
#X connect 7 0 6 0;
#X connect 7 1 9 0;
#X connect 8 0 6 1;
#X connect 9 0 8 0;
#X connect 12 0 11 0;
#X connect 13 0 0 0;
#X connect 13 0 34 0;
#X connect 13 1 0 1;
#X connect 13 1 33 0;
#X connect 14 0 13 2;
#X connect 15 0 16 0;
#X connect 16 0 26 0;
#X connect 17 0 32 0;
#X connect 17 1 4 0;
#X connect 18 0 7 0;
#X connect 19 0 7 0;
#X connect 21 0 13 1;
#X connect 22 0 21 1;
#X connect 22 0 23 1;
#X connect 23 0 13 0;
#X connect 24 0 23 0;
#X connect 25 0 21 0;
#X connect 26 0 29 0;
#X connect 27 0 28 0;
#X connect 28 0 0 0;
#X connect 28 0 30 0;
#X connect 29 0 1 0;
#X connect 29 1 28 0;
#X connect 29 2 27 0;
#X connect 30 1 31 0;
#X connect 32 0 15 0;
#X connect 33 0 3 0;
#X connect 34 0 12 0;
#X coords 0 -1 1 1 180 180 1 90 0;
