#N canvas 62 69 435 282 8;
#X floatatom 158 115 8 0 0 3 dur_in_smps - -;
#X floatatom 102 115 8 0 0 3 dur_in_ms - -;
#X symbolatom 103 141 30 0 0 3 table_name - -;
#X floatatom 226 115 6 0 0 3 samplerate - -;
#X obj 102 8 inlet;
#X obj 45 124 outlet;
#X obj 102 77 unpack s f f f s;
#X symbolatom 103 166 40 0 0 3 file_name - -;
#X obj 255 79 outlet;
#X obj 282 116 bng 20 250 50 0 empty empty open -1 23 0 10 -4034 -1
-1;
#X msg 316 116 open;
#X obj -7 62 list;
#X msg -7 86 table \$1 \, sr \$4;
#X obj 13 106 print;
#X obj -7 124 outlet;
#X obj 102 48 u_samplebank \$0-mytable \$1;
#X connect 4 0 15 0;
#X connect 6 0 2 0;
#X connect 6 1 1 0;
#X connect 6 2 0 0;
#X connect 6 3 3 0;
#X connect 6 4 7 0;
#X connect 9 0 10 0;
#X connect 10 0 15 0;
#X connect 11 0 12 0;
#X connect 12 0 13 0;
#X connect 12 0 14 0;
#X connect 15 0 5 0;
#X connect 15 0 6 0;
#X connect 15 0 11 0;
#X connect 15 1 8 0;
#X coords 0 -1 1 1 210 90 1 100 100;
