#N canvas 0 0 1916 1008 10;
#X floatatom 317 17 5 0 0 0 - - -;
#X floatatom 317 62 5 0 0 0 - - -;
#X floatatom 317 126 5 0 0 0 - - -;
#X obj 317 38 tabread \$0-array;
#N canvas 0 22 450 300 (subpatch) 0;
#X array \$0-array 9 float 2;
#X coords 0 1 9 0 200 100 1 0 0;
#X restore 5 57 graph;
#X text 643 -101 number of preset from top level;
#X obj -140 316 tabwrite \$0-array;
#X obj -146 144 t b b;
#X obj -91 202 random 100;
#X obj -146 -314 inlet;
#X obj 317 277 spigot;
#X obj 190 18 tgl 15 0 empty empty empty 17 7 0 10 -109876 -1 -1 1
1;
#X obj 167 18 bng 15 250 50 0 empty empty NG 2 8 0 10 -262144 -1 -1
;
#X obj 300 344 switch;
#X obj 300 314 + 1;
#X obj 346 324 line;
#X obj 346 303 pack;
#X obj 83 18 hradio 15 1 0 2 empty empty GL 18 8 0 10 -262144 -1 -1
0;
#X obj 399 260 r time;
#X obj 141 380 tabread \$0-array;
#X obj 140 299 Uzi;
#X obj 140 334 counter;
#X obj 141 421 tabwrite \$0-save;
#X msg 140 254 8;
#X obj 139 274 t b f f b;
#X obj 140 355 t f f;
#X obj 17 303 Uzi;
#X obj 17 338 counter;
#X msg 17 258 8;
#X obj 16 278 t b f f b;
#X obj 17 359 t f f;
#X obj 18 384 tabread \$0-save;
#X obj 18 425 tabwrite \$0-array;
#X obj 133 36 bng 15 250 50 0 empty empty UD 2 8 0 10 -262144 -1 -1
;
#X obj 117 18 bng 15 250 50 0 empty empty S 5 8 0 10 -259544 -1 -262144
;
#X obj 1029 98 table \$0-save;
#X obj -131 23 loadbang;
#X obj -131 44 uzi 5;
#X obj -90 264 / 100;
#X obj -90 231 - 0;
#X obj 317 84 +;
#X obj 317 105 / 1;
#X obj 564 77 list-map2;
#X obj 564 105 list prepend 0;
#N canvas 737 171 598 380 tabdump-ins 0;
#X obj 187 213 list prepend;
#X obj 278 213 t a;
#X obj 125 254 list;
#X obj 125 23 inlet;
#X obj 125 279 outlet;
#N canvas 0 0 450 300 countto 0;
#X obj 163 151 f 0;
#X obj 190 151 + 1;
#X obj 163 109 until;
#X msg 205 111 0;
#X obj 163 180 outlet;
#X obj 163 39 inlet;
#X obj 163 87 t a b;
#X connect 0 0 1 0;
#X connect 0 0 4 0;
#X connect 1 0 0 1;
#X connect 2 0 0 0;
#X connect 3 0 0 1;
#X connect 5 0 6 0;
#X connect 6 0 2 0;
#X connect 6 1 3 0;
#X restore 187 114 pd countto;
#X obj 187 136 t a a;
#X obj 360 213 list prepend;
#X obj 451 213 t a;
#X obj 187 256 list;
#X obj 187 281 outlet;
#X obj 125 46 t b b b b b;
#X msg 187 92 9;
#X obj 187 190 tabread \$0-in1;
#X obj 360 190 tabread \$0-in2;
#X connect 0 0 2 1;
#X connect 0 0 1 0;
#X connect 1 0 0 1;
#X connect 2 0 4 0;
#X connect 3 0 11 0;
#X connect 5 0 6 0;
#X connect 6 0 13 0;
#X connect 6 1 14 0;
#X connect 7 0 8 0;
#X connect 7 0 9 1;
#X connect 8 0 7 1;
#X connect 9 0 10 0;
#X connect 11 0 2 0;
#X connect 11 1 9 0;
#X connect 11 2 12 0;
#X connect 11 3 0 1;
#X connect 11 4 7 1;
#X connect 12 0 5 0;
#X connect 13 0 0 0;
#X connect 14 0 7 0;
#X restore 564 24 pd tabdump-ins;
#X obj 79 36 hsl 32 15 1 0 0 0 empty empty X-F 10 8 1 10 -262144 -1
-1 0 1;
#X obj 564 1 t b a;
#N canvas 0 0 450 300 xfade 0;
#X obj 54 131 -;
#X obj 54 155 * 0.5;
#X obj 54 182 +;
#X obj 104 48 inlet;
#X obj 54 48 inlet;
#X obj 54 206 outlet;
#X obj 54 81 unpack 0 0;
#X connect 0 0 1 0;
#X connect 1 0 2 0;
#X connect 2 0 5 0;
#X connect 3 0 1 1;
#X connect 4 0 6 0;
#X connect 6 0 0 0;
#X connect 6 1 0 1;
#X connect 6 1 2 1;
#X restore 647 77 pd xfade;
#N canvas 0 0 333 245 noise 0;
#X obj 33 115 random 1000;
#X obj 33 88 t b a;
#N canvas 0 0 450 300 countto 0;
#X obj 163 151 f 0;
#X obj 190 151 + 1;
#X obj 163 109 until;
#X msg 205 111 0;
#X obj 163 180 outlet;
#X obj 163 39 inlet;
#X obj 163 87 t a b;
#X connect 0 0 1 0;
#X connect 0 0 4 0;
#X connect 1 0 0 1;
#X connect 2 0 0 0;
#X connect 3 0 0 1;
#X connect 5 0 6 0;
#X connect 6 0 2 0;
#X connect 6 1 3 0;
#X restore 33 66 pd countto;
#X obj 33 143 / 1000;
#X obj 33 163 - 0;
#X obj 33 194 tabwrite \$0-in2;
#X obj 33 -9 inlet;
#X obj 33 45 f \$5;
#X msg 33 17 bang;
#X connect 0 0 3 0;
#X connect 1 0 0 0;
#X connect 1 1 5 1;
#X connect 2 0 1 0;
#X connect 3 0 4 0;
#X connect 4 0 5 0;
#X connect 6 0 8 0;
#X connect 7 0 2 0;
#X connect 8 0 7 0;
#X restore 865 -2 pd noise;
#X msg 865 -26 make noise;
#N canvas 0 0 363 272 noise 0;
#X obj 43 125 random 1000;
#X obj 43 98 t b a;
#N canvas 0 0 450 300 countto 0;
#X obj 163 151 f 0;
#X obj 190 151 + 1;
#X obj 163 109 until;
#X msg 205 111 0;
#X obj 163 180 outlet;
#X obj 163 39 inlet;
#X obj 163 87 t a b;
#X connect 0 0 1 0;
#X connect 0 0 4 0;
#X connect 1 0 0 1;
#X connect 2 0 0 0;
#X connect 3 0 0 1;
#X connect 5 0 6 0;
#X connect 6 0 2 0;
#X connect 6 1 3 0;
#X restore 43 76 pd countto;
#X obj 43 153 / 1000;
#X obj 43 173 - 0;
#X obj 43 1 inlet;
#X obj 43 55 f \$5;
#X msg 43 27 bang;
#X obj 43 204 tabwrite \$0-in1;
#X connect 0 0 3 0;
#X connect 1 0 0 0;
#X connect 1 1 8 1;
#X connect 2 0 1 0;
#X connect 3 0 4 0;
#X connect 4 0 8 0;
#X connect 5 0 7 0;
#X connect 6 0 2 0;
#X connect 7 0 6 0;
#X restore 785 -2 pd noise;
#X msg 785 -26 make noise;
#X msg 1030 174 resize \$1;
#X obj 1030 240 s \$0-in1;
#X obj 1040 220 s \$0-in2;
#X obj 1050 200 s \$0-array;
#X obj 1015 261 s \$0-save;
#X obj 564 127 s \$0-array;
#X obj 1030 126 loadbang;
#X msg 778 105 bang;
#X obj 778 154 zl rev;
#X obj 778 182 list prepend 0;
#X obj 167 36 bng 15 250 50 0 empty empty RO 2 8 0 10 -262144 -1 -1
;
#X obj 153 36 bng 15 250 50 0 empty empty RV 2 8 0 10 -262144 -1 -1
;
#X obj 778 130 tabdump \$0-array;
#X obj 778 204 s \$0-array;
#X msg 898 105 bang;
#X obj 898 182 list prepend 0;
#X obj 898 130 tabdump \$0-array;
#X obj 898 204 s \$0-array;
#X obj 898 154 zl rot 1;
#X obj 152 18 bng 15 250 50 0 empty empty NS 2 8 0 10 -262130 -99865
-258113;
#N canvas 0 0 297 265 noise 0;
#X obj 33 115 random 1000;
#X obj 33 88 t b a;
#N canvas 0 0 450 300 countto 0;
#X obj 163 151 f 0;
#X obj 190 151 + 1;
#X obj 163 109 until;
#X msg 205 111 0;
#X obj 163 180 outlet;
#X obj 163 39 inlet;
#X obj 163 87 t a b;
#X connect 0 0 1 0;
#X connect 0 0 4 0;
#X connect 1 0 0 1;
#X connect 2 0 0 0;
#X connect 3 0 0 1;
#X connect 5 0 6 0;
#X connect 6 0 2 0;
#X connect 6 1 3 0;
#X restore 33 66 pd countto;
#X obj 33 -19 inlet;
#X obj 33 143 / 1000;
#X obj 33 163 - 0;
#X obj 33 194 tabwrite \$0-array;
#X obj 30 226 tabwrite \$0-in1;
#X obj 33 35 f \$5;
#X msg 33 11 bang;
#X connect 0 0 4 0;
#X connect 1 0 0 0;
#X connect 1 1 6 1;
#X connect 1 1 7 1;
#X connect 2 0 1 0;
#X connect 3 0 9 0;
#X connect 4 0 5 0;
#X connect 5 0 6 0;
#X connect 5 0 7 0;
#X connect 8 0 2 0;
#X connect 9 0 8 0;
#X restore 696 -2 pd noise;
#X msg 696 -26 make noise;
#X obj -140 346 tabwrite \$0-in1;
#X obj 865 -74 loadbang;
#X obj 20 456 tabwrite \$0-in1;
#X obj 745 226 s \$0-in1;
#X obj 885 226 s \$0-in1;
#X obj 317 -33 r \$1;
#X obj 1030 154 f \$5;
#X obj 140 231 f \$5;
#X obj 17 231 f \$5;
#X obj -174 173 random \$5;
#X obj 317 148 m_scale 0 1 \$3 \$4;
#X obj 300 376 send \$2;
#X obj 167 -190 r \$2-nudge;
#X obj 190 -169 r \$2-seqon;
#X obj 133 -147 r \$2-undo;
#X obj 179 -108 r \$2-rota;
#X obj 75 -168 r \$2-xfade;
#X obj 199 -88 r \$2-noise;
#X obj 83 -98 r \$2-glide;
#X obj 117 -68 r \$2-save;
#X obj 117 36 bng 15 250 50 0 empty empty RT 2 8 0 10 -232576 -1 -1
;
#X obj 137 -48 r \$2-revert;
#X obj 153 -128 r \$2-reverse;
#X text 735 515 undo all changes and retrieve saved state in one step
;
#X text 665 466 RT/revert:;
#X text 665 515 UD/undo:;
#X text 663 291 <<GUI and MESSAGES>>;
#X text 665 315 GL/glide:;
#X obj 382 282 f 50;
#X obj 382 240 loadbang;
#X text 735 314 interpolation between array values (global transit
time as [r time] \, defaults to 50ms);
#X text 665 345 X-F/xfade:;
#X text 735 345 crossfade between states "0": \$0-array current state
(\$0-in1 is initially a copy of \$0-array \, but if changed can be
later mirrored again - MR/mirror) and "1": \$0-in2 gets random values
initially but also subject to be manipulated;
#X obj 133 18 bng 15 250 50 0 empty empty MR 2 8 0 10 -262144 -1 -1
;
#X text 665 396 S/save:;
#X text 735 396 save current state to table \$0-save to be retrieved
later with RT or UD;
#X obj 143 -28 r \$2-mirror;
#X text 665 426 MR/mirror:;
#X text 735 466 revert gently to saved state (curent state is copied
to \$0-in2 and saved state to \$0-in1 array. X-fade is set to f 1.0)
- use crossfade to gradually return to saved state (fader "0");
#X text 735 426 manually copy current state to \$0-in and set X-fade
to "0" - useful when \$0-in2 gets manipulated while in a smooth x-fade
is going on;
#X text 665 535 NS/noise:;
#X text 665 560 NG/nudge:;
#X text 735 561 change only one value of \$0-array;
#X text 665 580 RV/reverse:;
#X text 735 581 reverse order of values of \$0-array;
#X text 665 600 RO/rota:;
#X text 735 601 rotate elements - push all values of \$0-array sideways
by one index;
#X obj 298 493 list prepend 0;
#X obj 298 470 tabdump \$0-array;
#X obj 271 433 t b b;
#X obj 298 515 s \$0-in1;
#X obj 271 545 s \$2-xfade;
#X obj 460 437 list prepend 0;
#X obj 460 414 tabdump \$0-array;
#X obj 421 555 s \$2-xfade;
#X obj 460 459 s \$0-in2;
#X obj 421 393 t b b b;
#X obj 440 507 list prepend 0;
#X obj 440 529 s \$0-in1;
#X obj 440 484 tabdump \$0-save;
#X text 413 -222 <<CREATION ARGS>>;
#X text 413 -209 <in:trig_receive> <out:value_send> <arr:min_value>
<arr:max_value>< arr:length>;
#X obj 84 -198 s \$2-nudge;
#X obj -118 -216 s \$2-xfade;
#X obj 26 -237 s \$2-undo;
#X obj -89 -237 s \$2-glide;
#X obj 112 -218 s \$2-reverse;
#X obj 141 -238 s \$2-rota;
#X obj 55 -258 s \$2-noise;
#X obj -60 -258 s \$2-save;
#X obj -3 -218 s \$2-revert;
#X obj -31 -198 s \$2-mirror;
#X obj 170 -259 s \$2-seqon;
#X msg 271 482 1;
#X msg 421 442 0;
#X obj 669 -55 t b b;
#X text 877 289 << att!!! FADER state values are reversed compared
to below;
#X obj 669 19 s \$2-mirror;
#X text 735 536 make random noise on \$0-array current state \, and
exec a "MR/mirror" command;
#X obj 20 -39 loadbang;
#X msg 20 -18 0;
#X obj 230 -39 loadbang;
#X msg 230 -18 0;
#X obj -146 -293 route bang xfade glide save mirror revert undo noise
nudge reverse rota seqon;
#X obj 785 18 table \$0-in1;
#X obj 865 18 table \$0-in2;
#X obj 190 36 bng 15 250 50 0 empty empty ZR 2 8 0 10 -262144 -1 -1
;
#X msg 518 203 zero out;
#N canvas 0 0 306 241 zero 0;
#X obj 33 88 t b a;
#N canvas 0 0 450 300 countto 0;
#X obj 163 151 f 0;
#X obj 190 151 + 1;
#X obj 163 109 until;
#X msg 205 111 0;
#X obj 163 180 outlet;
#X obj 163 39 inlet;
#X obj 163 87 t a b;
#X connect 0 0 1 0;
#X connect 0 0 4 0;
#X connect 1 0 0 1;
#X connect 2 0 0 0;
#X connect 3 0 0 1;
#X connect 5 0 6 0;
#X connect 6 0 2 0;
#X connect 6 1 3 0;
#X restore 33 66 pd countto;
#X obj 33 -19 inlet;
#X obj 33 35 f \$5;
#X msg 33 11 bang;
#X msg 33 119 0;
#X obj 33 146 tabwrite \$0-in2;
#X connect 0 0 5 0;
#X connect 0 1 6 1;
#X connect 1 0 0 0;
#X connect 2 0 4 0;
#X connect 3 0 1 0;
#X connect 4 0 3 0;
#X connect 5 0 6 0;
#X restore 518 227 pd zero;
#X obj 491 249 s \$2-xfade;
#X msg 491 176 0;
#X obj 491 153 t b b;
#X text 665 630 ZR/zero:;
#X text 735 631 zero out \$0-in2 array and set fade control state to
"0";
#X connect 0 0 3 0;
#X connect 1 0 40 0;
#X connect 2 0 84 0;
#X connect 3 0 1 0;
#X connect 7 0 83 0;
#X connect 7 1 8 0;
#X connect 8 0 39 0;
#X connect 9 0 157 0;
#X connect 10 0 13 1;
#X connect 10 0 16 0;
#X connect 11 0 10 1;
#X connect 12 0 7 0;
#X connect 13 0 85 0;
#X connect 14 0 13 0;
#X connect 15 0 13 2;
#X connect 16 0 15 0;
#X connect 17 0 14 0;
#X connect 18 0 102 0;
#X connect 19 0 22 0;
#X connect 20 0 21 0;
#X connect 21 0 25 0;
#X connect 23 0 24 0;
#X connect 24 0 20 0;
#X connect 24 1 20 1;
#X connect 24 2 21 4;
#X connect 24 3 21 2;
#X connect 25 0 19 0;
#X connect 25 1 22 1;
#X connect 26 0 27 0;
#X connect 27 0 30 0;
#X connect 28 0 29 0;
#X connect 29 0 26 0;
#X connect 29 1 26 1;
#X connect 29 2 27 4;
#X connect 29 3 27 2;
#X connect 30 0 31 0;
#X connect 30 1 32 1;
#X connect 30 1 76 1;
#X connect 31 0 32 0;
#X connect 31 0 76 0;
#X connect 33 0 82 0;
#X connect 34 0 81 0;
#X connect 36 0 37 0;
#X connect 37 0 7 0;
#X connect 38 0 6 0;
#X connect 38 0 74 0;
#X connect 39 0 38 0;
#X connect 40 0 41 0;
#X connect 41 0 2 0;
#X connect 42 0 43 0;
#X connect 42 1 47 0;
#X connect 43 0 57 0;
#X connect 44 0 42 0;
#X connect 44 1 42 1;
#X connect 45 0 46 0;
#X connect 46 0 44 0;
#X connect 46 1 47 1;
#X connect 47 0 42 2;
#X connect 49 0 48 0;
#X connect 51 0 50 0;
#X connect 52 0 53 0;
#X connect 52 0 54 0;
#X connect 52 0 55 0;
#X connect 52 0 56 0;
#X connect 58 0 80 0;
#X connect 59 0 64 0;
#X connect 60 0 61 0;
#X connect 61 0 65 0;
#X connect 61 0 77 0;
#X connect 62 0 68 0;
#X connect 63 0 64 0;
#X connect 64 0 60 0;
#X connect 66 0 68 0;
#X connect 67 0 69 0;
#X connect 67 0 78 0;
#X connect 68 0 70 0;
#X connect 70 0 67 0;
#X connect 71 0 149 0;
#X connect 73 0 72 0;
#X connect 75 0 49 0;
#X connect 79 0 0 0;
#X connect 80 0 52 0;
#X connect 81 0 23 0;
#X connect 82 0 28 0;
#X connect 83 0 6 1;
#X connect 83 0 74 1;
#X connect 84 0 10 0;
#X connect 86 0 12 0;
#X connect 87 0 11 0;
#X connect 88 0 33 0;
#X connect 89 0 62 0;
#X connect 90 0 45 0;
#X connect 91 0 71 0;
#X connect 92 0 17 0;
#X connect 93 0 34 0;
#X connect 94 0 130 0;
#X connect 95 0 94 0;
#X connect 96 0 63 0;
#X connect 102 0 16 1;
#X connect 103 0 102 0;
#X connect 107 0 123 0;
#X connect 110 0 107 0;
#X connect 121 0 124 0;
#X connect 122 0 121 0;
#X connect 123 0 147 0;
#X connect 123 1 122 0;
#X connect 126 0 129 0;
#X connect 127 0 126 0;
#X connect 130 0 148 0;
#X connect 130 1 133 0;
#X connect 130 2 127 0;
#X connect 131 0 132 0;
#X connect 133 0 131 0;
#X connect 147 0 125 0;
#X connect 148 0 128 0;
#X connect 149 0 151 0;
#X connect 149 1 73 0;
#X connect 153 0 154 0;
#X connect 154 0 17 0;
#X connect 155 0 156 0;
#X connect 156 0 11 0;
#X connect 157 0 7 0;
#X connect 157 1 137 0;
#X connect 157 2 139 0;
#X connect 157 3 143 0;
#X connect 157 4 145 0;
#X connect 157 5 144 0;
#X connect 157 6 138 0;
#X connect 157 7 142 0;
#X connect 157 8 136 0;
#X connect 157 9 140 0;
#X connect 157 10 141 0;
#X connect 157 11 146 0;
#X connect 160 0 165 0;
#X connect 161 0 162 0;
#X connect 164 0 163 0;
#X connect 165 0 164 0;
#X connect 165 1 161 0;
#X coords 0 -1 1 1 210 160 1 0 0;
