#N canvas 35 634 522 337 10;
#X obj 53 250 line;
#X obj 95 77 f 500;
#X msg 53 232 \$1 \$2;
#X obj 53 194 pack f f;
#X obj 53 21 inlet;
#X obj 53 301 outlet;
#X text 141 76 << default transition time 500 ms;
#X text 254 52 << get global transition time;
#X obj 117 52 r \$1-transition-lenght;
#X obj 105 278 list prepend \$2;
#X obj 110 23 r \$1-\$2;
#X obj 105 301 s \$1-smooth-\$2;
#X obj 129 123 random 10;
#X obj 129 145 - 10;
#X obj 95 160 +;
#X obj 53 52 t b f b b;
#X obj 180 101 r \$0-alter_range;
#X connect 0 0 5 0;
#X connect 0 0 9 0;
#X connect 1 0 14 0;
#X connect 2 0 0 0;
#X connect 3 0 2 0;
#X connect 4 0 15 0;
#X connect 8 0 1 1;
#X connect 9 0 11 0;
#X connect 10 0 15 0;
#X connect 12 0 13 0;
#X connect 13 0 14 1;
#X connect 14 0 3 1;
#X connect 15 1 3 0;
#X connect 15 2 1 0;
#X connect 15 3 12 0;
#X connect 16 0 12 1;
#X connect 16 0 13 1;
